<?xml version="1.0" encoding="UTF-8"?>
<svg version="1.1" xmlns="http://www.w3.org/2000/svg" width="1024" height="1024">
<path d="M0 0 C0 0.66 0 1.32 0 2 C1.32 2.33 2.64 2.66 4 3 C2.68 3 1.36 3 0 3 C0.13847638 6.62532066 0.28702643 10.25015904 0.4375 13.875 C0.47681641 14.90753906 0.51613281 15.94007813 0.55664062 17.00390625 C0.59853516 17.99003906 0.64042969 18.97617188 0.68359375 19.9921875 C0.72025146 20.90339355 0.75690918 21.81459961 0.79467773 22.75341797 C0.86577065 25.03483481 0.86577065 25.03483481 2 27 C1.34 27 0.68 27 0 27 C0.16298584 28.07505295 0.32597168 29.1501059 0.49389648 30.25773621 C1.18098095 35.79547998 1.12410278 41.30358152 1.09765625 46.8762207 C1.09546585 48.62638741 1.09546585 48.62638741 1.0932312 50.41191101 C1.08943841 52.93383015 1.08333586 55.45574666 1.07516479 57.97765541 C1.06237257 61.96550642 1.05573389 65.95334162 1.05102539 69.94120789 C1.03996203 78.39832033 1.02040096 86.85540571 1 95.3125 C0.977963 104.46137738 0.95740946 113.610244 0.94658184 122.75914258 C0.94079725 127.36259241 0.92721762 131.96598415 0.91235352 136.56941223 C0.90872267 138.96985838 0.90537073 141.37030497 0.90234375 143.77075195 C0.89459427 145.41885361 0.89459427 145.41885361 0.88668823 147.10025024 C0.88658249 148.60364204 0.88658249 148.60364204 0.88647461 150.1374054 C0.884254 151.00917073 0.88203339 151.88093607 0.87974548 152.77911854 C0.91127414 155.17460875 0.91127414 155.17460875 2 158 C1.68554487 160.33595238 1.3496418 162.66905466 1 165 C0.64627579 170.12900107 0.92554989 172.85703098 4 177 C6.60922693 178.69320704 6.60922693 178.69320704 9.5625 179.875 C11.01849609 180.52082031 11.01849609 180.52082031 12.50390625 181.1796875 C14.96237451 182.31219128 14.96237451 182.31219128 17 181 C17.33 181.99 17.66 182.98 18 184 C21.28305377 185.58072959 24.54536928 186.84845643 28 188 C28.45761719 188.47050781 28.91523438 188.94101562 29.38671875 189.42578125 C33.28666356 193.2312964 39.32029926 194.88415857 44.625 195.25 C45.40875 195.1675 46.1925 195.085 47 195 C46.34 195.99 45.68 196.98 45 198 C48.88999008 200.03026622 52.78209632 202.0564046 56.67602539 204.07910156 C57.99429077 204.76455476 59.31201955 205.45104114 60.62915039 206.13867188 C67.42124606 209.68372601 74.23640486 213.17792351 81.14453125 216.4921875 C82.6601062 217.22091064 82.6601062 217.22091064 84.20629883 217.96435547 C87.02968003 219.01100259 89.01965156 219.21889757 92 219 C91.67 219.99 91.34 220.98 91 222 C92.10859375 222.55429687 93.2171875 223.10859375 94.359375 223.6796875 C107 230 107 230 109.11816406 231.18408203 C109.73916992 231.45333496 110.36017578 231.72258789 111 232 C111.66 231.67 112.32 231.34 113 231 C113.33 231.99 113.66 232.98 114 234 C115.64999044 235.24034583 115.64999044 235.24034583 117.7109375 236.26171875 C118.83628906 236.85629883 118.83628906 236.85629883 119.984375 237.46289062 C121.16773438 238.06907227 121.16773438 238.06907227 122.375 238.6875 C123.15617188 239.10322266 123.93734375 239.51894531 124.7421875 239.94726562 C129.1306311 242.34076757 129.1306311 242.34076757 134 243 C134 243.66 134 244.32 134 245 C134.845625 245.268125 135.69125 245.53625 136.5625 245.8125 C140.13854067 247.0478595 143.53860908 248.476988 147 250 C147 250.66 147 251.32 147 252 C148.65 252.33 150.3 252.66 152 253 C152.33 252.34 152.66 251.68 153 251 C153.19722656 251.58265625 153.39445312 252.1653125 153.59765625 252.765625 C155.60575474 255.96515797 158.11393691 257.01596708 161.4375 258.75 C162.59121094 259.36359375 163.74492187 259.9771875 164.93359375 260.609375 C167.89419529 262.20650805 167.89419529 262.20650805 171 262 C171.433125 262.45375 171.86625 262.9075 172.3125 263.375 C174.59779236 265.5756519 176.99089149 266.13070199 180 267 C180 267.66 180 268.32 180 269 C181.65 268.67 183.3 268.34 185 268 C185.38478516 268.93779297 185.38478516 268.93779297 185.77734375 269.89453125 C187.49226518 272.84770266 189.8789946 273.41073634 192.9453125 274.65234375 C197.85468746 276.81824447 202.52581004 279.43483567 207.23461914 282.00268555 C207.94996826 282.38851807 208.66531738 282.77435059 209.40234375 283.171875 C210.04679443 283.5234668 210.69124512 283.87505859 211.35522461 284.23730469 C213.00023539 285.14022667 213.00023539 285.14022667 215 285 C215 285.66 215 286.32 215 287 C215.94875 287.144375 216.8975 287.28875 217.875 287.4375 C221 288 221 288 223 289 C223 289.66 223 290.32 223 291 C223.886875 291.28875 224.77375 291.5775 225.6875 291.875 C228.50382424 292.83148748 231.25083156 293.86798946 234 295 C234 295.66 234 296.32 234 297 C235.25103516 297.36738281 235.25103516 297.36738281 236.52734375 297.7421875 C241.15935077 299.41992233 245.26264018 301.79965705 249.52148438 304.25390625 C253.16135882 306.27564729 255.80509909 307.49920126 260 307 C260 307.99 260 308.98 260 310 C261.03898437 310.51949219 262.07796875 311.03898437 263.1484375 311.57421875 C263.81987793 311.91001953 264.49131836 312.24582031 265.18310547 312.59179688 C266.64801462 313.32408829 268.11318537 314.05585663 269.57861328 314.78710938 C272.79828827 316.39444879 276.01416144 318.0072354 279.21875 319.64453125 C280.0953125 320.09183594 280.971875 320.53914063 281.875 321 C282.63554688 321.391875 283.39609375 321.78375 284.1796875 322.1875 C285.97215254 323.13586416 285.97215254 323.13586416 288 323 C288 323.66 288 324.32 288 325 C289.2065625 325.3403125 289.2065625 325.3403125 290.4375 325.6875 C294.24182636 327.08909392 297.4213414 328.93785298 300.8515625 331.07421875 C303.38567304 332.16619002 304.46049958 331.94800355 307 331 C306.34 331.33 305.68 331.66 305 332 C305 332.66 305 333.32 305 334 C305.76957031 334.21527344 306.53914063 334.43054688 307.33203125 334.65234375 C312.36864276 336.50285597 316.96583246 339.02805165 321.6875 341.5625 C323.56534036 342.56579963 325.44420232 343.56719016 327.32421875 344.56640625 C328.15010498 345.00927979 328.97599121 345.45215332 329.8269043 345.90844727 C332.08646262 347.10840054 332.08646262 347.10840054 335 348 C336.62001178 348.93129765 338.2225826 349.89320769 339.8125 350.875 C345.26501318 354.20908082 345.26501318 354.20908082 351 357 C351.66 356.67 352.32 356.34 353 356 C353 356.99 353 357.98 353 359 C353.66128906 359.2475 354.32257813 359.495 355.00390625 359.75 C359.46969899 361.61317298 363.7299902 363.86223585 368.02929688 366.078125 C371.15810911 367.66773956 374.09335197 369.03051688 377.44140625 370.125 C380 371 380 371 381 373 C383.1143646 374.08451082 385.26710858 375.09497611 387.4375 376.0625 C388.61183594 376.58972656 389.78617188 377.11695313 390.99609375 377.66015625 C392.48302734 378.32337891 392.48302734 378.32337891 394 379 C396 380 396 380 398.171875 381.375 C404.60022977 385.47979071 404.60022977 385.47979071 412 387 C412 387.99 412 388.98 412 390 C413.32 390 414.64 390 416 390 C416.33 390.99 416.66 391.98 417 393 C418.97939047 393.72557412 420.98568249 394.37793136 423 395 C425.79488501 396.26577918 428.5192244 397.66460297 431.25 399.0625 C431.96929688 399.42666016 432.68859375 399.79082031 433.4296875 400.16601562 C435.28811648 401.10741083 437.14422315 402.05338737 439 403 C439.66 403.33 440.32 403.66 441 404 C441.53625 404.433125 442.0725 404.86625 442.625 405.3125 C447.81735564 409.00180532 452.45475786 411.65452421 459 411 C459 411.66 459 412.32 459 413 C457.68 413 456.36 413 455 413 C454.88390381 413.70310303 454.76780762 414.40620605 454.64819336 415.13061523 C453.94279298 418.25324072 452.88229693 420.96462997 451.62890625 423.91015625 C451.14212402 425.05508545 450.6553418 426.20001465 450.15380859 427.37963867 C449.6241218 428.60758265 449.09366849 429.83519623 448.5625 431.0625 C448.29367004 431.68637604 448.02484009 432.31025208 447.74786377 432.95303345 C440.26173965 450.29295638 431.85954108 466.88966394 422 483 C421.5875 483.68046387 421.175 484.36092773 420.75 485.06201172 C415.25106919 494.12021142 409.42635188 502.85921831 403.1640625 511.40673828 C402.05874341 512.91959742 400.96648871 514.44197623 399.875 515.96484375 C395.93455443 521.45222206 391.84269348 526.77361365 387.56640625 532.00390625 C385.95904996 533.91494076 385.95904996 533.91494076 385 536 C384.34 536 383.68 536 383 536 C382.7525 536.55171875 382.505 537.1034375 382.25 537.671875 C380.75765526 540.45136707 378.96327477 542.7814707 377 545.25 C376.29875 546.14203125 375.5975 547.0340625 374.875 547.953125 C374.25625 548.62859375 373.6375 549.3040625 373 550 C372.34 550 371.68 550 371 550 C370.62875 550.8353125 370.62875 550.8353125 370.25 551.6875 C367.63922293 556.51743757 363.86624747 560.16442864 360 564 C358.32635976 565.68443577 356.65320074 567.36934978 354.98046875 569.0546875 C353.54165542 570.50088274 352.10235519 571.94659145 350.6628418 573.39208984 C349.68374233 574.376212 348.70554305 575.36123062 347.72827148 576.34716797 C341.99987227 582.12479184 336.18414421 587.71021021 330 593 C328.11136479 594.69391522 326.24454085 596.40987551 324.375 598.125 C321.45959953 600.78600957 318.54737742 603.42834098 315.5 605.9375 C313.09276205 607.82766848 313.09276205 607.82766848 311.5625 609.5625 C310 611 310 611 306.875 612.6875 C303.79143176 614.38410763 301.34440319 616.37412181 298.75 618.75 C294.71615318 622.43750643 290.50261074 625.65538808 286.05078125 628.8203125 C283.90178458 630.3557032 281.77838653 631.90589013 279.66796875 633.4921875 C271.47100623 639.63004237 263.06975238 645.29595122 254.34985352 650.67260742 C253.11126587 651.45341675 253.11126587 651.45341675 251.84765625 652.25 C251.10523682 652.70890625 250.36281738 653.1678125 249.59790039 653.640625 C249.07059326 654.08921875 248.54328613 654.5378125 248 655 C248 655.99 248 656.98 248 658 C246.68 658 245.36 658 244 658 C241.5479527 659.2684956 239.2247706 660.5659132 236.875 662 C230.23986486 666 230.23986486 666 228 666 C228 666.66 228 667.32 228 668 C227.43410156 668.25394531 226.86820313 668.50789062 226.28515625 668.76953125 C225.55167969 669.11371094 224.81820313 669.45789063 224.0625 669.8125 C223.33160156 670.14894531 222.60070312 670.48539063 221.84765625 670.83203125 C219.66970511 671.93600134 219.66970511 671.93600134 219 675 C218.05125 675.12375 217.1025 675.2475 216.125 675.375 C212.91332809 675.71687177 212.91332809 675.71687177 211 678 C204.12052321 681.94136691 197.95978105 684.09038097 190 683 C189.34 682.67 188.68 682.34 188 682 C188 681.01 188 680.02 188 679 C182.4174808 675.67424388 178.50313209 674.53549057 172 675 C172.0309375 673.88625 172.0309375 673.88625 172.0625 672.75 C170.76558714 669.39328436 169.93120426 669.15940048 166.75 667.6875 C163.39600869 666.35553216 160.64989424 665.5290459 157 666 C156.76925781 665.24203125 156.53851563 664.4840625 156.30078125 663.703125 C154.72684943 660.43237178 153.31195788 659.53005097 150.1875 657.75 C149.33542969 657.24984375 148.48335938 656.7496875 147.60546875 656.234375 C145.03798965 655.01799809 142.79836604 654.4220157 140 654 C139.67 653.01 139.34 652.02 139 651 C137.845 650.67 136.69 650.34 135.5 650 C134.345 649.67 133.19 649.34 132 649 C131.67 648.01 131.34 647.02 131 646 C128.33000983 643.89761377 128.33000983 643.89761377 125.125 641.875 C124.05507813 641.17117188 122.98515625 640.46734375 121.8828125 639.7421875 C119.08151064 637.90492813 119.08151064 637.90492813 116 637 C115.525625 636.505 115.05125 636.01 114.5625 635.5 C112.74806281 633.75814029 111.44440923 633.42144987 109 633 C109 632.34 109 631.68 109 631 C106.95162033 629.24762896 104.90318009 627.6137324 102.75 626 C102.16347656 625.54882812 101.57695312 625.09765625 100.97265625 624.6328125 C98.09930084 622.45035379 95.31676616 620.44492783 92 619 C92 618.34 92 617.68 92 617 C91.443125 616.7525 90.88625 616.505 90.3125 616.25 C87.58663143 614.77655753 85.40309489 612.95755759 83 611 C82.17242187 610.33742188 81.34484375 609.67484375 80.4921875 608.9921875 C74.57069567 604.20196575 68.89199227 599.24852189 63.3125 594.06640625 C60.98197309 591.88630363 60.98197309 591.88630363 58 590 C58 589.34 58 588.68 58 588 C57.42121094 587.73832031 56.84242188 587.47664062 56.24609375 587.20703125 C50.37630494 584.05265778 42.13498304 577.40494913 40 571 C39.34 571 38.68 571 38 571 C36.765625 569.77734375 36.765625 569.77734375 35.25 567.9375 C31.67519679 563.71953135 27.92117061 559.70438995 24.125 555.6875 C19.15952819 550.4095572 14.42909095 545.04657949 9.91015625 539.37890625 C8.14112489 537.17575676 6.3096879 535.05294201 4.4375 532.9375 C2 530 2 530 2 528 C1.34 528 0.68 528 0 528 C-1.6640625 525.98046875 -1.6640625 525.98046875 -3.625 523.1875 C-4.68074219 521.69863281 -4.68074219 521.69863281 -5.7578125 520.1796875 C-6.86769531 518.60574219 -6.86769531 518.60574219 -8 517 C-9.49667972 514.93508933 -10.99650263 512.87245192 -12.5 510.8125 C-13.66666667 509.20833333 -14.83333333 507.60416667 -16 506 C-17.32 506.33 -18.64 506.66 -20 507 C-19.62101562 505.97132813 -19.62101562 505.97132813 -19.234375 504.921875 C-18.90094119 500.76506683 -20.88444472 498.44961125 -23.25 495.25 C-23.65863281 494.66089844 -24.06726563 494.07179688 -24.48828125 493.46484375 C-27.05791179 489.86479315 -27.05791179 489.86479315 -31 488 C-31.10699219 487.28328125 -31.21398437 486.5665625 -31.32421875 485.828125 C-32.06448807 482.73011929 -33.19407539 480.48698137 -34.8125 477.75 C-35.31394531 476.87859375 -35.81539063 476.0071875 -36.33203125 475.109375 C-37.82042728 472.84688296 -37.82042728 472.84688296 -40.19921875 472.203125 C-41.09060547 472.10257813 -41.09060547 472.10257813 -42 472 C-41.70089722 471.11103027 -41.70089722 471.11103027 -41.39575195 470.20410156 C-40.72707098 466.47994868 -43.24566012 463.78125161 -45.1875 460.75 C-62.03970338 433.18351413 -88 388.12513681 -88 355 C-83.55695594 355.23384442 -80.77877417 356.64309012 -77.125 359 C-72.58468676 361.87553172 -69.34008932 362.80221891 -64 363 C-64 363.99 -64 364.98 -64 366 C-62.96101563 366.51949219 -61.92203125 367.03898437 -60.8515625 367.57421875 C-60.18012207 367.91001953 -59.50868164 368.24582031 -58.81689453 368.59179688 C-57.35198538 369.32408829 -55.88681463 370.05585663 -54.42138672 370.78710938 C-51.20171173 372.39444879 -47.98583856 374.0072354 -44.78125 375.64453125 C-43.9046875 376.09183594 -43.028125 376.53914063 -42.125 377 C-41.36445313 377.391875 -40.60390625 377.78375 -39.8203125 378.1875 C-38.02784746 379.13586416 -38.02784746 379.13586416 -36 379 C-35.14148438 379.87398437 -35.14148438 379.87398437 -34.265625 380.765625 C-27.51237815 387.42572361 -17.25418248 391.42906349 -8.79882812 395.58374023 C6.83534257 403.32192073 22.09277499 411.87484652 37.33105469 420.3605957 C42.1582167 423.03666024 47.04399801 425.51836673 52.03125 427.88452148 C54 429 54 429 55 431 C57.52733235 431.65555119 57.52733235 431.65555119 60 432 C60 432.66 60 433.32 60 434 C60.66128906 434.24492188 61.32257813 434.48984375 62.00390625 434.7421875 C65.77199488 436.32409694 69.33440205 438.20153253 72.9375 440.125 C73.68531738 440.52243408 74.43313477 440.91986816 75.20361328 441.3293457 C81.13169124 444.49723708 86.97195401 447.80059917 92.79296875 451.16015625 C97.48625519 453.85265066 102.24143488 456.42535113 107 459 C108.93760596 460.06230675 110.87510654 461.12480574 112.8125 462.1875 C115.6043681 463.71609729 118.38040983 465.18288934 121.25 466.5625 C123.50548613 467.74150411 125.34429148 468.93495782 127.375 470.4375 C130.30798957 472.59550752 133.34308372 474.17724448 136.61425781 475.7800293 C142.46259299 478.77062804 148.1009708 482.18073631 153.77539062 485.48632812 C154.76087891 486.05158203 155.74636719 486.61683594 156.76171875 487.19921875 C157.64819092 487.71315186 158.53466309 488.22708496 159.44799805 488.7565918 C161.92455592 490.11370669 161.92455592 490.11370669 164.57739258 490.42504883 C167.72083675 491.17107433 168.80705477 492.67364771 171 495 C172.66540682 496.07799134 174.37127528 497.09515293 176.10546875 498.05859375 C177.08966797 498.60966797 178.07386719 499.16074219 179.08789062 499.72851562 C180.11076172 500.29248047 181.13363281 500.85644531 182.1875 501.4375 C183.19103516 501.99759766 184.19457031 502.55769531 185.22851562 503.13476562 C188.14877195 504.76304127 191.0739475 506.38216958 194 508 C195.64210005 508.91375174 197.28404271 509.82778641 198.92578125 510.7421875 C201.21397237 512.01414877 203.50643419 513.27220838 205.8125 514.51171875 C206.534375 514.89972656 207.25625 515.28773438 208 515.6875 C208.7425 516.08324219 209.485 516.47898437 210.25 516.88671875 C212 518 212 518 213 520 C218.96628074 517.69974719 224.02255143 514.56974525 229.3125 511 C230.12267578 510.46632813 230.93285156 509.93265625 231.76757812 509.3828125 C232.54166016 508.86460937 233.31574219 508.34640625 234.11328125 507.8125 C234.81235596 507.34457031 235.51143066 506.87664062 236.23168945 506.39453125 C238.26365062 504.94018769 238.26365062 504.94018769 240 502 C240.66 502 241.32 502 242 502 C243.67256004 501.14892013 243.67256004 501.14892013 245.484375 499.98828125 C246.17273438 499.55966797 246.86109375 499.13105469 247.5703125 498.68945312 C248.64925781 498.00786133 248.64925781 498.00786133 249.75 497.3125 C250.45382812 496.87744141 251.15765625 496.44238281 251.8828125 495.99414062 C256.22330486 493.27124811 260.10624797 490.32591319 264 487 C265.31836295 486.30419733 266.64791086 485.62775567 268 485 C268.66 484.34 269.32 483.68 270 483 C272.0141632 481.69079392 274.06784936 480.45909083 276.125 479.21875 C278.13169724 478.0066389 278.13169724 478.0066389 280 476 C282.80665486 474.31947209 285.63121407 472.67472456 288.46875 471.046875 C291.49622372 468.59873267 292.11428763 466.73264498 293 463 C288.66231898 460.83801833 288.66231898 460.83801833 284 460 C284 459.34 284 458.68 284 458 C280.71303767 457.20046862 279.28976808 456.90341064 276 458 C276 457.34 276 456.68 276 456 C275.34 455.67 274.68 455.34 274 455 C274.33 454.67 274.66 454.34 275 454 C273.9378125 453.46890625 272.875625 452.9378125 271.78125 452.390625 C267.53125 450.265625 267.53125 450.265625 263.28125 448.140625 C262.57742188 447.79064453 261.87359375 447.44066406 261.1484375 447.08007812 C259.68901202 446.34638513 258.23601778 445.5997867 256.7890625 444.84179688 C256.08523438 444.47634766 255.38140625 444.11089844 254.65625 443.734375 C253.70975586 443.23502441 253.70975586 443.23502441 252.74414062 442.72558594 C250.85319584 441.80794929 250.85319584 441.80794929 248 442 C248 441.34 248 440.68 248 440 C247.35417969 439.76539063 246.70835937 439.53078125 246.04296875 439.2890625 C241.18062557 437.22927656 236.60874105 434.62575118 231.97460938 432.1015625 C231.23662109 431.70453125 230.49863281 431.3075 229.73828125 430.8984375 C228.73341675 430.35195557 228.73341675 430.35195557 227.70825195 429.79443359 C226.01174358 428.85943795 226.01174358 428.85943795 224 429 C224 428.34 224 427.68 224 427 C223.20980469 426.77570313 222.41960937 426.55140625 221.60546875 426.3203125 C216.01526501 424.27319564 210.93675597 421.31289421 205.72460938 418.45703125 C204.49387695 417.79380859 204.49387695 417.79380859 203.23828125 417.1171875 C202.49618408 416.71097168 201.75408691 416.30475586 200.98950195 415.88623047 C198.90625924 414.79654602 198.90625924 414.79654602 196 415 C195 414 194 413 193 412 C190.89667109 411.28552357 190.89667109 411.28552357 189 411 C189 410.34 189 409.68 189 409 C188.18789063 408.7628125 187.37578125 408.525625 186.5390625 408.28125 C182.24432449 406.72642211 178.38463748 404.67110846 174.375 402.5 C167.49260805 398.81846974 160.56316991 395.2635907 153.5625 391.8125 C148.04546069 389.08885818 142.65037171 386.29292488 137.375 383.125 C130.04911535 378.71228468 130.04911535 378.71228468 122 376 C121.01 376.66 120.02 377.32 119 378 C118.01 377.34 117.02 376.68 116 376 C116.66 375.34 117.32 374.68 118 374 C117.34 374.33 116.68 374.66 116 375 C116 373.68 116 372.36 116 371 C115.27941406 370.896875 114.55882812 370.79375 113.81640625 370.6875 C110.69959312 369.92666906 108.62823128 368.73005288 105.9375 367 C100.68621273 363.63399768 97.23339138 362.85833201 91 363 C91 361.68 91 360.36 91 359 C89.35 358.34 87.7 357.68 86 357 C85.67 357.99 85.34 358.98 85 360 C84.67 360 84.34 360 84 360 C84 358.02 84 356.04 84 354 C80.00999834 352.57499941 76.19469571 351.59924224 72 351 C72 350.01 72 349.02 72 348 C71.3090625 347.73058594 70.618125 347.46117187 69.90625 347.18359375 C66.72994627 345.89001844 63.61680751 344.49346419 60.5 343.0625 C59.3965625 342.55847656 58.293125 342.05445313 57.15625 341.53515625 C54.32051276 340.15589296 51.69943051 338.62297049 49 337 C45.9517606 335.47926723 42.89515213 333.98341766 39.8203125 332.51757812 C35.10837438 330.21674877 35.10837438 330.21674877 34 328 C32.34757588 327.29877483 30.67579846 326.6433675 29 326 C25.91100289 324.55347478 22.86273418 323.02628576 19.8125 321.5 C18.93916016 321.06365234 18.06582031 320.62730469 17.16601562 320.17773438 C8.90734402 316.01564969 0.82554696 311.5602847 -7.2109375 306.98632812 C-7.80132812 306.66083984 -8.39171875 306.33535156 -9 306 C-9.97839844 305.4421582 -9.97839844 305.4421582 -10.9765625 304.87304688 C-13.24482822 303.73589042 -13.24482822 303.73589042 -17 304 C-17 303.01 -17 302.02 -17 301 C-18.99541868 300.31974363 -20.99617991 299.65509503 -23 299 C-24.0209375 298.6596875 -24.0209375 298.6596875 -25.0625 298.3125 C-27.56313241 297.90917219 -29.56182774 298.39045694 -32 299 C-32.66 297.02 -33.32 295.04 -34 293 C-34.66 293.33 -35.32 293.66 -36 294 C-36 293.01 -36 292.02 -36 291 C-38.64 291 -41.28 291 -44 291 C-43.67 290.01 -43.34 289.02 -43 288 C-43.77085937 287.65066406 -44.54171875 287.30132812 -45.3359375 286.94140625 C-46.33882813 286.48636719 -47.34171875 286.03132813 -48.375 285.5625 C-49.87160156 284.88380859 -49.87160156 284.88380859 -51.3984375 284.19140625 C-53.70446406 283.13534304 -55.85082936 282.09323165 -58 280.75 C-60.67715734 279.18832489 -63.36976881 277.73027931 -66.125 276.3125 C-66.97320312 275.87550781 -67.82140625 275.43851562 -68.6953125 274.98828125 C-71.04159136 273.80294635 -71.04159136 273.80294635 -74 274 C-74.66 274 -75.32 274 -76 274 C-75.67 273.01 -75.34 272.02 -75 271 C-76.61455078 270.1646875 -76.61455078 270.1646875 -78.26171875 269.3125 C-104.06611555 255.8677689 -104.06611555 255.8677689 -106 252 C-106.66 252.33 -107.32 252.66 -108 253 C-107.97679687 251.89527344 -107.95359375 250.79054688 -107.9296875 249.65234375 C-107.79594599 240.20299199 -108.09253095 230.85756618 -108.875 221.4375 C-108.95347168 220.43259521 -109.03194336 219.42769043 -109.11279297 218.39233398 C-109.19674316 217.45719971 -109.28069336 216.52206543 -109.3671875 215.55859375 C-109.44050293 214.72642334 -109.51381836 213.89425293 -109.58935547 213.03686523 C-109.84828694 210.78276976 -109.84828694 210.78276976 -112 209 C-112.22705078 206.75341797 -112.22705078 206.75341797 -112.1953125 203.9921875 C-112.18886719 203.00605469 -112.18242187 202.01992188 -112.17578125 201.00390625 C-112.15902344 199.97136719 -112.14226562 198.93882812 -112.125 197.875 C-112.11597656 196.83472656 -112.10695312 195.79445313 -112.09765625 194.72265625 C-112.07403747 192.14820908 -112.04110149 189.57421788 -112 187 C-111.67 187 -111.34 187 -111 187 C-110.979375 185.741875 -110.95875 184.48375 -110.9375 183.1875 C-110.92589844 182.47980469 -110.91429687 181.77210938 -110.90234375 181.04296875 C-110.91736783 178.79694539 -110.91736783 178.79694539 -112 176 C-112.09414232 174.16333656 -112.13071104 172.32344839 -112.1328125 170.484375 C-112.13410156 169.39769531 -112.13539063 168.31101562 -112.13671875 167.19140625 C-112.13285156 166.05574219 -112.12898437 164.92007813 -112.125 163.75 C-112.12886719 162.62980469 -112.13273438 161.50960937 -112.13671875 160.35546875 C-112.13015856 154.79899033 -111.99617159 149.4710376 -111 144 C-111.66 143.67 -112.32 143.34 -113 143 C-112.34 143 -111.68 143 -111 143 C-111.0721875 141.71738281 -111.144375 140.43476563 -111.21875 139.11328125 C-112.32747759 117.08695504 -112.09369431 95.04699148 -112 73 C-110.02 72.505 -110.02 72.505 -108 72 C-108 70.35 -108 68.7 -108 67 C-106.88625 66.84337891 -106.88625 66.84337891 -105.75 66.68359375 C-102.75279806 65.93855065 -101.35719959 65.01915981 -99 63.0625 C-98.23429688 62.44117188 -97.46859375 61.81984375 -96.6796875 61.1796875 C-95.79539063 60.46039063 -94.91109375 59.74109375 -94 59 C-91.71868988 57.21563595 -89.42231301 55.45118771 -87.125 53.6875 C-86.56554687 53.2551001 -86.00609375 52.8227002 -85.4296875 52.37719727 C-82.99560969 50.50105204 -80.55849776 48.70566518 -78 47 C-78.33 46.34 -78.66 45.68 -79 45 C-78.34 44.34 -77.68 43.68 -77 43 C-76.34 43.66 -75.68 44.32 -75 45 C-74.40574219 44.50371094 -73.81148437 44.00742188 -73.19921875 43.49609375 C-67.74893469 39.02906467 -62.2220707 35.12691692 -56.15234375 31.54296875 C-53.71122681 30.11165396 -53.71122681 30.11165396 -53 27 C-50.67713187 26.29773754 -48.34174892 25.63647535 -46 25 C-42.98977646 23.39392148 -42.98977646 23.39392148 -40.0625 21.4375 C-34.96891263 18.20684505 -29.82447762 15.13613221 -24.5625 12.1875 C-23.56972046 11.62857056 -23.56972046 11.62857056 -22.55688477 11.05834961 C-18.75369918 8.93209098 -14.91408651 6.9177209 -11 5 C-11.495 4.01 -11.495 4.01 -12 3 C-10.906875 2.87625 -9.81375 2.7525 -8.6875 2.625 C-5.33817502 2.0573178 -3.19116366 0 0 0 Z M-107 245 C-106 247 -106 247 -106 247 Z " fill="#F2FE00" transform="translate(316,197)"/>
<path d="M0 0 C0.99 0.99 0.99 0.99 2 2 C2.5775 1.67 3.155 1.34 3.75 1 C8.0530875 -0.91248334 12.49257184 0.30654951 17 1 C17 1.33 17 1.66 17 2 C18.4540625 1.9690625 18.4540625 1.9690625 19.9375 1.9375 C23 2 23 2 24 3 C27.2881489 3.24087602 30.56917935 3.39275541 33.86328125 3.51757812 C40.66287602 3.83992027 47.28704072 4.9062506 54 6 C55.37807487 6.21607844 56.75633881 6.43095364 58.13476562 6.64477539 C104.5438048 13.84793493 104.5438048 13.84793493 117 18 C118.19908713 23.68352352 118.17317975 29.27369315 118.20532227 35.05419922 C118.21522186 36.15722885 118.22512146 37.26025848 118.23532104 38.39671326 C118.26683953 42.03268304 118.29165534 45.66866588 118.31640625 49.3046875 C118.3369841 51.82960342 118.3579808 54.35451595 118.37937927 56.87942505 C118.4288825 62.83970905 118.47416999 68.80001557 118.51740164 74.76034749 C118.56687594 81.54878015 118.62175609 88.33716578 118.67708123 95.12555289 C118.79071869 109.08365799 118.89759705 123.04180828 119 137 C118.34 137 117.68 137 117 137 C120.13923823 140.39271709 123.65631114 142.4450608 128 144 C130.8849831 143.89660605 130.8849831 143.89660605 133 143 C133.06962952 143.60395599 133.13925903 144.20791199 133.21099854 144.83016968 C134.31405156 147.86367216 135.75915493 148.30545575 138.62402344 149.71728516 C139.60884705 150.21104645 140.59367065 150.70480774 141.6083374 151.21353149 C142.68117981 151.73345673 143.75402222 152.25338196 144.859375 152.7890625 C145.95590393 153.33356049 147.05243286 153.87805847 148.18218994 154.4390564 C151.69845765 156.18088318 155.22406887 157.90283271 158.75 159.625 C161.11259271 160.79303063 163.47458004 161.96228663 165.8359375 163.1328125 C170.17322759 165.27628594 174.51167793 167.41721005 178.85839844 169.54150391 C179.7325238 169.96912018 180.60664917 170.39673645 181.50726318 170.83731079 C183.96411092 171.98326023 186.48293738 172.99317495 189 174 C189.33 131.76 189.66 89.52 190 46 C191.485 45.505 191.485 45.505 193 45 C193 45.66 193 46.32 193 47 C197.32059823 48.09845718 201.61667943 49.17812739 206 50 C205.34 50.66 204.68 51.32 204 52 C208.22949995 54.41685712 211.12335991 55.34833144 216 55 C216 55.99 216 56.98 216 58 C217.32 57.67 218.64 57.34 220 57 C220 58.32 220 59.64 220 61 C224.91582077 62.51953709 224.91582077 62.51953709 230 63 C230.36291138 63.90516357 230.36291138 63.90516357 230.7331543 64.82861328 C232.26747032 67.4584469 233.62482061 68.26404335 236.26953125 69.7421875 C237.58860474 70.49580566 237.58860474 70.49580566 238.93432617 71.26464844 C239.88412354 71.79606445 240.8339209 72.32748047 241.8125 72.875 C250.92745792 78.09822057 259.71195757 83.66531504 268.3840332 89.59326172 C269.20991943 90.1554541 270.03580566 90.71764648 270.88671875 91.296875 C271.97279419 92.04469238 271.97279419 92.04469238 273.08081055 92.80761719 C275.09042953 94.15905734 275.09042953 94.15905734 278 95 C278 95.66 278 96.32 278 97 C278.515625 97.226875 279.03125 97.45375 279.5625 97.6875 C281.76398865 98.87291697 283.48158791 100.15010185 285.4375 101.6875 C288.31216965 103.81902407 288.31216965 103.81902407 291.9375 103.8125 C292.618125 103.544375 293.29875 103.27625 294 103 C294.33 103.66 294.66 104.32 295 105 C293.68 104.67 292.36 104.34 291 104 C295.91219018 109.18508963 298.944546 111.03789264 306 112 C305.67 112.99 305.34 113.98 305 115 C305.99 115.33 306.98 115.66 308 116 C308.33 116.99 308.66 117.98 309 119 C308.34 119.33 307.68 119.66 307 120 C306.50418583 130.6652792 306.03886785 141.32891396 305.81640625 152.00390625 C305.36107616 173.26530893 304.32167895 194.45778786 303.01611328 215.68457031 C302.94970139 216.77337997 302.88328949 217.86218964 302.81486511 218.98399353 C302.68965389 221.02627053 302.56213967 223.06840822 302.43183899 225.11036682 C302.1836851 229.13565449 301.96820423 233.13262937 302.00708008 237.16625977 C301.99960635 241.21315462 301.68718836 245.17608299 301.265625 249.1953125 C301.18782303 249.96834213 301.11002106 250.74137177 301.02986145 251.53782654 C300.77411873 254.06733368 300.51241302 256.59617673 300.25 259.125 C300.06679368 260.91005618 299.88377264 262.69513138 299.70092773 264.48022461 C299.417836 267.23964103 299.13399231 269.99897162 298.84812927 272.75810242 C298.30276549 278.0238282 297.77157469 283.29061816 297.2575531 288.55949402 C295.06247968 311.03018436 292.07951965 333.19754298 288.015625 355.4140625 C287.87326416 356.19676514 287.73090332 356.97946777 287.58422852 357.78588867 C287.22713076 359.72256713 286.854748 361.65641227 286.48046875 363.58984375 C285.93439166 367.46565918 285.91845101 371.08994036 286 375 C282.66089331 375 281.8342022 374.47430845 279.125 372.6875 C278.42246094 372.23375 277.71992187 371.78 276.99609375 371.3125 C276.33738281 370.879375 275.67867187 370.44625 275 370 C271.29972953 367.49387616 271.29972953 367.49387616 267 367 C265.99289295 366.00715792 264.99399416 365.00596999 264 364 C262.38283642 363.19003128 260.73181883 362.44616233 259.0625 361.75 C254.8447009 359.90262625 250.89600748 357.85260134 246.9375 355.5 C236.14251827 348.84332147 236.14251827 348.84332147 224 346 C224.33 345.34 224.66 344.68 225 344 C224.21496094 343.61328125 223.42992187 343.2265625 222.62109375 342.828125 C221.57050781 342.30734375 220.51992188 341.7865625 219.4375 341.25 C218.34050781 340.70730469 217.24351562 340.16460937 216.11328125 339.60546875 C213.68209511 338.35174541 211.41965505 337.03874535 209.125 335.5625 C205.50318096 333.75159048 203.82807816 333.87958688 200 335 C200 333.68 200 332.36 200 331 C197.58858519 329.65632608 195.17166012 328.32497485 192.75 327 C192.06808594 326.6184375 191.38617187 326.236875 190.68359375 325.84375 C190.01972656 325.4828125 189.35585938 325.121875 188.671875 324.75 C187.76066895 324.24726562 187.76066895 324.24726562 186.83105469 323.734375 C184.7100488 322.75183735 184.7100488 322.75183735 181 323 C181 322.01 181 321.02 181 320 C180.37351562 319.87882812 179.74703125 319.75765625 179.1015625 319.6328125 C178.28429687 319.46523438 177.46703125 319.29765625 176.625 319.125 C175.81289063 318.96257812 175.00078125 318.80015625 174.1640625 318.6328125 C172 318 172 318 170 316 C169.67 316.99 169.34 317.98 169 319 C168.34 319 167.68 319 167 319 C166.5359375 317.39125 166.5359375 317.39125 166.0625 315.75 C164.58750574 312.22719819 162.88217156 311.07280824 159.4375 309.5 C157.14494012 308.50458264 157.14494012 308.50458264 155 308 C154.34 308.33 153.68 308.66 153 309 C152.01 308.67 151.02 308.34 150 308 C150 306.68 150 305.36 150 304 C149.2575 303.71125 148.515 303.4225 147.75 303.125 C145 302 145 302 142.875 300.875 C140.89176146 299.78855727 140.89176146 299.78855727 138 300 C138.33 299.34 138.66 298.68 139 298 C135.35206816 296.72746564 131.8063457 295.67170806 128 295 C128 294.34 128 293.68 128 293 C126.68 293.33 125.36 293.66 124 294 C123.67 292.68 123.34 291.36 123 290 C122.67 290.66 122.34 291.32 122 292 C120.68 291.67 119.36 291.34 118 291 C118 289.68 118 288.36 118 287 C117.29875 286.896875 116.5975 286.79375 115.875 286.6875 C112.59961077 285.90425475 109.96416374 284.58088733 107 283 C106.34 282.67 105.68 282.34 105 282 C103.7934375 281.2575 103.7934375 281.2575 102.5625 280.5 C100.01463004 278.89024005 100.01463004 278.89024005 97 278 C95.989375 277.484375 94.97875 276.96875 93.9375 276.4375 C91.2456559 274.85348238 91.2456559 274.85348238 89 275 C88.67 275.66 88.34 276.32 88 277 C87.731875 276.401875 87.46375 275.80375 87.1875 275.1875 C85.12016209 271.37924596 82.57158756 269.60034953 78.71875 267.73046875 C77.46300171 267.11328979 77.46300171 267.11328979 76.18188477 266.48364258 C75.29686279 266.05591553 74.41184082 265.62818848 73.5 265.1875 C66.90546959 261.96776548 60.45628042 258.69238885 54.19140625 254.86328125 C51.42837483 253.77481433 49.80721188 254.18308649 47 255 C46.90847656 254.38640625 46.81695313 253.7728125 46.72265625 253.140625 C46.18553958 250.91865003 46.18553958 250.91865003 44.43359375 249.734375 C39.33699101 247.22098187 35.67528491 246.59462251 30 247 C30 245.68 30 244.36 30 243 C25.38 240.69 20.76 238.38 16 236 C16 236.66 16 237.32 16 238 C15.34 238 14.68 238 14 238 C14 236.68 14 235.36 14 234 C13.278125 233.71125 12.55625 233.4225 11.8125 233.125 C9.99125179 232.39650072 8.17794374 231.64769018 6.375 230.875 C3.95267129 229.82714732 3.95267129 229.82714732 1 230 C0.01 230 -0.98 230 -2 230 C-2 229.34 -2 228.68 -2 228 C-4.0745356 226.7763932 -4.0745356 226.7763932 -7 227 C-7.33 226.01 -7.66 225.02 -8 224 C-10.60242414 222.35179805 -11.86248779 222 -15 222 C-15.66 221.67 -16.32 221.34 -17 221 C-17.33 221.66 -17.66 222.32 -18 223 C-18.495 220.525 -18.495 220.525 -19 218 C-20.41601714 217.51891725 -21.83284437 217.04021859 -23.25 216.5625 C-24.03890625 216.29566406 -24.8278125 216.02882813 -25.640625 215.75390625 C-28.9043899 214.71101448 -31.5557042 214 -35 214 C-34.34 213.01 -33.68 212.02 -33 211 C-34.98 210.67 -36.96 210.34 -39 210 C-39 209.34 -39 208.68 -39 208 C-40.32 207.67 -41.64 207.34 -43 207 C-43 206.34 -43 205.68 -43 205 C-45.31 205.33 -47.62 205.66 -50 206 C-50 204.68 -50 203.36 -50 202 C-51.98 202.33 -53.96 202.66 -56 203 C-55.67 202.01 -55.34 201.02 -55 200 C-58.73437848 199.12132271 -62.16774573 198.91087781 -66 199 C-66 197.68 -66 196.36 -66 195 C-67.58199631 194.35089846 -69.16565724 193.70585306 -70.75 193.0625 C-72.07257813 192.52302734 -72.07257813 192.52302734 -73.421875 191.97265625 C-75.62847726 191.1401654 -77.67732999 190.39889333 -80 190 C-80.66 190.33 -81.32 190.66 -82 191 C-82.33 189.68 -82.66 188.36 -83 187 C-83.598125 187.350625 -84.19625 187.70125 -84.8125 188.0625 C-87 189 -87 189 -90 188 C-89.67 186.35 -89.34 184.7 -89 183 C-90.98 183 -92.96 183 -95 183 C-95 182.34 -95 181.68 -95 181 C-97.87290373 179.70363485 -100.74868162 178.41376901 -103.625 177.125 C-104.43324219 176.76019531 -105.24148438 176.39539063 -106.07421875 176.01953125 C-113.74737524 172.36010329 -113.74737524 172.36010329 -122 171 C-122.33 168.69 -122.66 166.38 -123 164 C-123.99 163.67 -124.98 163.34 -126 163 C-125.51213013 161.68032227 -125.51213013 161.68032227 -125.0144043 160.33398438 C-123.3767248 154.55854843 -123.73482348 148.60935049 -123.76953125 142.65625 C-123.76998947 141.3731897 -123.77044769 140.09012939 -123.7709198 138.76818848 C-123.77247733 136.06171183 -123.78070994 133.35536882 -123.79418945 130.64892578 C-123.81117804 127.19597028 -123.81500325 123.74316117 -123.81424427 120.29016876 C-123.81458303 116.97467658 -123.82343053 113.65923145 -123.83203125 110.34375 C-123.83314407 109.1112854 -123.8342569 107.8788208 -123.83540344 106.60900879 C-123.86040576 102.0704664 -123.89048566 97.7208255 -124.57299805 93.22851562 C-125.02811609 89.78741729 -124.71101583 87.00396139 -124.26220703 83.58953857 C-123.72240361 78.25847717 -123.90087806 72.89142115 -123.9375 67.5390625 C-123.94128662 66.27154144 -123.94507324 65.00402039 -123.94897461 63.6980896 C-123.96113264 59.67368989 -123.97958395 55.64936376 -124 51.625 C-124.02683675 46.30469259 -124.04653354 40.98441671 -124.0625 35.6640625 C-124.07079834 34.43910065 -124.07909668 33.21413879 -124.08764648 31.95205688 C-124.09260132 30.25416519 -124.09260132 30.25416519 -124.09765625 28.52197266 C-124.10289307 27.52541656 -124.10812988 26.52886047 -124.11352539 25.50210571 C-124 23 -124 23 -123 20 C-120.70202946 19.05358618 -118.58056009 18.37617322 -116.1875 17.75 C-115.42050781 17.54383057 -114.65351563 17.33766113 -113.86328125 17.12524414 C-94.32412253 12.10659949 -74.22821511 8.70056606 -54.3125 5.5625 C-53.28769531 5.3987085 -52.26289063 5.23491699 -51.20703125 5.06616211 C-45.40182806 4.19274822 -39.87030124 3.84885939 -34 4 C-33.67 3.34 -33.34 2.68 -33 2 C-33 2.66 -33 3.32 -33 4 C-32.34 3.67 -31.68 3.34 -31 3 C-29.18507865 2.87018017 -27.36591135 2.79748916 -25.546875 2.75390625 C-24.45246094 2.72103516 -23.35804688 2.68816406 -22.23046875 2.65429688 C-19.9258707 2.59351342 -17.62117903 2.53617369 -15.31640625 2.48242188 C-14.21683594 2.44826172 -13.11726563 2.41410156 -11.984375 2.37890625 C-10.47955566 2.34132202 -10.47955566 2.34132202 -8.94433594 2.30297852 C-5.73390727 1.97261848 -3.01737276 1.12183653 0 0 Z M119 288 C120 290 120 290 120 290 Z " fill="#F2FE00" transform="translate(514,153)"/>
<path d="M0 0 C-3.44450737 2.29633824 -5.93812283 2.54016485 -10 3 C-9 1 -9 1 -7.25 0.375 C-4.79549443 -0.03408426 -2.4840589 -0.06900164 0 0 Z " fill="#FFFF00" transform="translate(442,160)"/>
<path d="M0 0 C1.98 0.99 1.98 0.99 4 2 C3.67 2.99 3.34 3.98 3 5 C2.01 5 1.02 5 0 5 C0 3.35 0 1.7 0 0 Z " fill="#FFFF00" transform="translate(480,595)"/>
<path d="M0 0 C2.475 0.99 2.475 0.99 5 2 C1.86650268 3.04449911 1.01031744 2.93423645 -2 2 C-1.34 1.34 -0.68 0.68 0 0 Z " fill="#FFFF00" transform="translate(554,402)"/>
<path d="M0 0 C0.66 0 1.32 0 2 0 C2 0.66 2 1.32 2 2 C2.99 2.33 3.98 2.66 5 3 C4.01 3.33 3.02 3.66 2 4 C1.34 2.68 0.68 1.36 0 0 Z " fill="#FFFF00" transform="translate(360,532)"/>
<path d="M0 0 C0.99 0.99 1.98 1.98 3 3 C1.35 3 -0.3 3 -2 3 C-1.34 2.67 -0.68 2.34 0 2 C0 1.34 0 0.68 0 0 Z " fill="#FFFF00" transform="translate(438,573)"/>
<path d="M0 0 C1.32 0.66 2.64 1.32 4 2 C3.01 2.33 2.02 2.66 1 3 C0.34 2.67 -0.32 2.34 -1 2 C-0.67 1.34 -0.34 0.68 0 0 Z " fill="#FFFF00" transform="translate(266,482)"/>
<path d="M0 0 C0.99 0.33 1.98 0.66 3 1 C3 1.99 3 2.98 3 4 C2.01 3.67 1.02 3.34 0 3 C0 2.01 0 1.02 0 0 Z " fill="#FFFF00" transform="translate(648,450)"/>
<path d="M0 0 C1.32 0.33 2.64 0.66 4 1 C3.67 1.66 3.34 2.32 3 3 C2.01 2.67 1.02 2.34 0 2 C0 1.34 0 0.68 0 0 Z " fill="#FFFF00" transform="translate(391,549)"/>
<path d="M0 0 C1.65 0 3.3 0 5 0 C2 2 2 2 0 2 C0 1.34 0 0.68 0 0 Z " fill="#FFFF00" transform="translate(594,513)"/>
<path d="M0 0 C0.99 0.33 1.98 0.66 3 1 C2.67 1.66 2.34 2.32 2 3 C1.01 2.67 0.02 2.34 -1 2 C-0.67 1.34 -0.34 0.68 0 0 Z " fill="#FFFF00" transform="translate(314,508)"/>
<path d="M0 0 C0.66 1.32 1.32 2.64 2 4 C1.01 3.67 0.02 3.34 -1 3 C-0.67 2.01 -0.34 1.02 0 0 Z " fill="#FFFF00" transform="translate(395,324)"/>
<path d="M0 0 C2.97 0.495 2.97 0.495 6 1 C4.125 1.625 4.125 1.625 2 2 C1.34 1.34 0.68 0.68 0 0 Z " fill="#FFFF00" transform="translate(421,162)"/>
<path d="M0 0 C1.98 0.99 1.98 0.99 4 2 C3.01 2 2.02 2 1 2 C0.67 1.34 0.34 0.68 0 0 Z " fill="#FFFF00" transform="translate(409,817)"/>
<path d="M0 0 C0.99 0.495 0.99 0.495 2 1 C1.67 1.99 1.34 2.98 1 4 C0.67 2.68 0.34 1.36 0 0 Z " fill="#FFFF00" transform="translate(328,740)"/>
<path d="M0 0 C0.66 0.66 1.32 1.32 2 2 C0.68 2.33 -0.64 2.66 -2 3 C-2 2.34 -2 1.68 -2 1 C-1.34 0.67 -0.68 0.34 0 0 Z " fill="#FFFF00" transform="translate(578,680)"/>
<path d="M0 0 C0.99 0 1.98 0 3 0 C2.67 0.99 2.34 1.98 2 3 C1.34 2.67 0.68 2.34 0 2 C0 1.34 0 0.68 0 0 Z " fill="#FFFF00" transform="translate(249,621)"/>
<path d="M0 0 C1.32 0.33 2.64 0.66 4 1 C3.67 1.66 3.34 2.32 3 3 C2.01 2.01 1.02 1.02 0 0 Z " fill="#FFFF00" transform="translate(255,477)"/>
<path d="M0 0 C0.99 0.495 0.99 0.495 2 1 C1.67 1.99 1.34 2.98 1 4 C0.67 2.68 0.34 1.36 0 0 Z " fill="#FFFF00" transform="translate(818,352)"/>
<path d="M0 0 C0.66 0.66 1.32 1.32 2 2 C1.34 2.66 0.68 3.32 0 4 C-0.33 3.34 -0.66 2.68 -1 2 C-0.67 1.34 -0.34 0.68 0 0 Z " fill="#FFFF00" transform="translate(413,332)"/>
<path d="M0 0 C0.99 0.33 1.98 0.66 3 1 C1.68 1.33 0.36 1.66 -1 2 C-0.67 1.34 -0.34 0.68 0 0 Z " fill="#FFFF00" transform="translate(472,154)"/>
<path d="M0 0 C0.66 0.66 1.32 1.32 2 2 C1.01 2 0.02 2 -1 2 C-0.67 1.34 -0.34 0.68 0 0 Z " fill="#FFFF00" transform="translate(306,713)"/>
<path d="M0 0 C0.66 0.66 1.32 1.32 2 2 C1.01 2 0.02 2 -1 2 C-0.67 1.34 -0.34 0.68 0 0 Z " fill="#FFFF00" transform="translate(529,712)"/>
<path d="M0 0 C0.66 0.99 1.32 1.98 2 3 C1.01 2.67 0.02 2.34 -1 2 C-0.67 1.34 -0.34 0.68 0 0 Z " fill="#FFFF00" transform="translate(542,706)"/>
<path d="M0 0 C0.33 0.66 0.66 1.32 1 2 C0.34 2.66 -0.32 3.32 -1 4 C-0.67 2.68 -0.34 1.36 0 0 Z " fill="#FFFF00" transform="translate(281,676)"/>
<path d="M0 0 C0.99 0.33 1.98 0.66 3 1 C1.68 1.33 0.36 1.66 -1 2 C-0.67 1.34 -0.34 0.68 0 0 Z " fill="#FFFF00" transform="translate(601,664)"/>
<path d="M0 0 C1.32 0.33 2.64 0.66 4 1 C2.68 1.33 1.36 1.66 0 2 C0 1.34 0 0.68 0 0 Z " fill="#FFFF00" transform="translate(412,648)"/>
<path d="M0 0 C0.33 1.32 0.66 2.64 1 4 C0.34 3.01 -0.32 2.02 -1 1 C-0.67 0.67 -0.34 0.34 0 0 Z " fill="#FFFF00" transform="translate(258,636)"/>
<path d="M0 0 C0.99 0.495 0.99 0.495 2 1 C2 1.66 2 2.32 2 3 C1.34 3 0.68 3 0 3 C0 2.01 0 1.02 0 0 Z " fill="#FFFF00" transform="translate(515,613)"/>
<path d="M0 0 C0.66 0.66 1.32 1.32 2 2 C1.34 2.66 0.68 3.32 0 4 C0 2.68 0 1.36 0 0 Z " fill="#FFFF00" transform="translate(496,603)"/>
<path d="M0 0 C0.99 1.485 0.99 1.485 2 3 C1.01 3.495 1.01 3.495 0 4 C0 2.68 0 1.36 0 0 Z " fill="#FFFF00" transform="translate(240,595)"/>
<path d="M0 0 C0.66 0 1.32 0 2 0 C1.67 0.99 1.34 1.98 1 3 C0.67 2.01 0.34 1.02 0 0 Z " fill="#FFFF00" transform="translate(376,541)"/>
<path d="M0 0 C0.99 0.495 0.99 0.495 2 1 C2 1.66 2 2.32 2 3 C1.34 3 0.68 3 0 3 C0 2.01 0 1.02 0 0 Z " fill="#FFFF00" transform="translate(776,517)"/>
<path d="M0 0 C0.66 0 1.32 0 2 0 C1.67 0.99 1.34 1.98 1 3 C0.67 2.01 0.34 1.02 0 0 Z " fill="#FFFF00" transform="translate(744,501)"/>
<path d="M0 0 C0.99 0.33 1.98 0.66 3 1 C2.34 1.66 1.68 2.32 1 3 C0.67 2.01 0.34 1.02 0 0 Z " fill="#FFFF00" transform="translate(724,490)"/>
<path d="M0 0 C0.66 0 1.32 0 2 0 C2.33 0.99 2.66 1.98 3 3 C2.34 3 1.68 3 1 3 C0.67 2.01 0.34 1.02 0 0 Z " fill="#FFFF00" transform="translate(606,429)"/>
<path d="M0 0 C1.32 0 2.64 0 4 0 C3.67 0.66 3.34 1.32 3 2 C2.01 1.34 1.02 0.68 0 0 Z " fill="#FFFF00" transform="translate(388,408)"/>
<path d="M0 0 C0.99 0.33 1.98 0.66 3 1 C2.01 1.33 1.02 1.66 0 2 C0 1.34 0 0.68 0 0 Z " fill="#FFFF00" transform="translate(416,334)"/>
<path d="M0 0 C1.32 0.33 2.64 0.66 4 1 C3.01 1.495 3.01 1.495 2 2 C1.34 1.34 0.68 0.68 0 0 Z " fill="#FFFF00" transform="translate(408,331)"/>
<path d="M0 0 C1.98 0.99 1.98 0.99 4 2 C2.68 1.67 1.36 1.34 0 1 C0 0.67 0 0.34 0 0 Z " fill="#FFFF00" transform="translate(697,323)"/>
<path d="M0 0 C1.32 0.33 2.64 0.66 4 1 C3.01 1.33 2.02 1.66 1 2 C0.67 1.34 0.34 0.68 0 0 Z " fill="#FFFF00" transform="translate(659,304)"/>
<path d="M0 0 C0.33 0.99 0.66 1.98 1 3 C0.01 2.67 -0.98 2.34 -2 2 C-1.34 2 -0.68 2 0 2 C0 1.34 0 0.68 0 0 Z " fill="#FFFF00" transform="translate(650,297)"/>
<path d="M0 0 C1.485 0.99 1.485 0.99 3 2 C1.68 1.67 0.36 1.34 -1 1 C-0.67 0.67 -0.34 0.34 0 0 Z " fill="#FFFF00" transform="translate(420,163)"/>
<path d="M0 0 C0.99 0.33 1.98 0.66 3 1 C2.01 1.33 1.02 1.66 0 2 C0 1.34 0 0.68 0 0 Z " fill="#FFFF00" transform="translate(416,164)"/>
<path d="M0 0 C0.66 0 1.32 0 2 0 C2 0.66 2 1.32 2 2 C1.01 1.67 0.02 1.34 -1 1 C-0.67 0.67 -0.34 0.34 0 0 Z " fill="#FFFF00" transform="translate(590,160)"/>
<path d="M0 0 C1.98 0.99 1.98 0.99 4 2 C2.68 1.67 1.36 1.34 0 1 C0 0.67 0 0.34 0 0 Z " fill="#FFFF00" transform="translate(537,154)"/>
<path d="M0 0 C0.33 0.66 0.66 1.32 1 2 C0.01 1.67 -0.98 1.34 -2 1 C-1.34 0.67 -0.68 0.34 0 0 Z " fill="#FFFF00" transform="translate(524,878)"/>
<path d="M0 0 C0.66 0 1.32 0 2 0 C2 0.66 2 1.32 2 2 C1.34 2 0.68 2 0 2 C0 1.34 0 0.68 0 0 Z " fill="#FFFF00" transform="translate(548,862)"/>
<path d="M0 0 C0.66 0.66 1.32 1.32 2 2 C1.01 1.67 0.02 1.34 -1 1 C-0.67 0.67 -0.34 0.34 0 0 Z " fill="#FFFF00" transform="translate(433,834)"/>
<path d="M0 0 C0.66 0.66 1.32 1.32 2 2 C1.01 2.495 1.01 2.495 0 3 C0 2.01 0 1.02 0 0 Z " fill="#FFFF00" transform="translate(392,805)"/>
<path d="M0 0 C0.99 0.33 1.98 0.66 3 1 C2.01 1.33 1.02 1.66 0 2 C0 1.34 0 0.68 0 0 Z " fill="#FFFF00" transform="translate(534,712)"/>
<path d="M0 0 C0 3 0 3 0 3 Z " fill="#FFFF00" transform="translate(719,709)"/>
<path d="M0 0 C0.66 0 1.32 0 2 0 C1.67 0.99 1.34 1.98 1 3 C0.67 2.01 0.34 1.02 0 0 Z " fill="#FFFF00" transform="translate(544,704)"/>
<path d="M0 0 C0.99 0.33 1.98 0.66 3 1 C2.01 1 1.02 1 0 1 C0 0.67 0 0.34 0 0 Z " fill="#FFFF00" transform="translate(595,654)"/>
<path d="M0 0 C1 4 1 4 1 4 Z " fill="#FFFF00" transform="translate(264,649)"/>
<path d="M0 0 C1.485 0.99 1.485 0.99 3 2 C2.01 2 1.02 2 0 2 C0 1.34 0 0.68 0 0 Z " fill="#FFFF00" transform="translate(764,630)"/>
<path d="M0 0 C0 3 0 3 0 3 Z " fill="#FFFF00" transform="translate(244,605)"/>
<path d="M0 0 C0.99 0.33 1.98 0.66 3 1 C2.01 1 1.02 1 0 1 C0 0.67 0 0.34 0 0 Z " fill="#FFFF00" transform="translate(498,605)"/>
<path d="M0 0 C0.66 0 1.32 0 2 0 C2 0.66 2 1.32 2 2 C1.34 2 0.68 2 0 2 C0 1.34 0 0.68 0 0 Z " fill="#FFFF00" transform="translate(758,600)"/>
<path d="M0 0 C4 1 4 1 4 1 Z " fill="#FFFF00" transform="translate(323,600)"/>
<path d="M0 0 C0.99 0 1.98 0 3 0 C2.67 0.66 2.34 1.32 2 2 C1.34 1.34 0.68 0.68 0 0 Z " fill="#FFFF00" transform="translate(741,592)"/>
<path d="M0 0 C0.99 0.33 1.98 0.66 3 1 C2.01 1 1.02 1 0 1 C0 0.67 0 0.34 0 0 Z " fill="#FFFF00" transform="translate(420,566)"/>
<path d="M0 0 C1.485 0.99 1.485 0.99 3 2 C2.01 2 1.02 2 0 2 C0 1.34 0 0.68 0 0 Z " fill="#FFFF00" transform="translate(419,563)"/>
<path d="M0 0 C0.99 0.33 1.98 0.66 3 1 C2.01 1 1.02 1 0 1 C0 0.67 0 0.34 0 0 Z " fill="#FFFF00" transform="translate(379,542)"/>
<path d="M0 0 C1.485 0.99 1.485 0.99 3 2 C2.01 2 1.02 2 0 2 C0 1.34 0 0.68 0 0 Z " fill="#FFFF00" transform="translate(786,522)"/>
<path d="M0 0 C0.99 0.495 0.99 0.495 2 1 C1.34 1.66 0.68 2.32 0 3 C0 2.01 0 1.02 0 0 Z " fill="#FFFF00" transform="translate(784,521)"/>
<path d="M0 0 C0.99 0.495 0.99 0.495 2 1 C1.34 1.66 0.68 2.32 0 3 C0 2.01 0 1.02 0 0 Z " fill="#FFFF00" transform="translate(760,509)"/>
<path d="M0 0 C1 4 1 4 1 4 Z " fill="#FFFF00" transform="translate(502,464)"/>
<path d="M0 0 C0.33 0.66 0.66 1.32 1 2 C0.01 1.67 -0.98 1.34 -2 1 C-1.34 0.67 -0.68 0.34 0 0 Z " fill="#FFFF00" transform="translate(623,437)"/>
<path d="M0 0 C1.485 0.99 1.485 0.99 3 2 C2.01 2 1.02 2 0 2 C0 1.34 0 0.68 0 0 Z " fill="#FFFF00" transform="translate(586,418)"/>
<path d="M0 0 C0.99 0 1.98 0 3 0 C2.67 0.66 2.34 1.32 2 2 C1.34 1.34 0.68 0.68 0 0 Z " fill="#FFFF00" transform="translate(372,400)"/>
<path d="M0 0 C1 4 1 4 1 4 Z " fill="#FFFF00" transform="translate(204,379)"/>
<path d="M0 0 C4 1 4 1 4 1 Z " fill="#FFFF00" transform="translate(695,321)"/>
<path d="M0 0 C1 4 1 4 1 4 Z " fill="#FFFF00" transform="translate(820,315)"/>
<path d="M0 0 C1.485 0.99 1.485 0.99 3 2 C2.01 2 1.02 2 0 2 C0 1.34 0 0.68 0 0 Z " fill="#FFFF00" transform="translate(232,242)"/>
<path d="M0 0 C0.66 0.33 1.32 0.66 2 1 C1.01 1 0.02 1 -1 1 C-0.67 0.67 -0.34 0.34 0 0 Z " fill="#FFFF00" transform="translate(245,236)"/>
<path d="M0 0 C1.485 0.99 1.485 0.99 3 2 C2.01 2 1.02 2 0 2 C0 1.34 0 0.68 0 0 Z " fill="#FFFF00" transform="translate(256,226)"/>
<path d="M0 0 C0.66 0 1.32 0 2 0 C2 0.66 2 1.32 2 2 C1.34 2 0.68 2 0 2 C0 1.34 0 0.68 0 0 Z " fill="#FFFF00" transform="translate(400,168)"/>
<path d="M0 0 C0.66 0.66 1.32 1.32 2 2 C1.01 1.67 0.02 1.34 -1 1 C-0.67 0.67 -0.34 0.34 0 0 Z " fill="#FFFF00" transform="translate(601,162)"/>
<path d="M0 0 C0.66 0.66 1.32 1.32 2 2 C1.01 1.67 0.02 1.34 -1 1 C-0.67 0.67 -0.34 0.34 0 0 Z " fill="#FFFF00" transform="translate(490,153)"/>
<path d="M0 0 C0.33 0.66 0.66 1.32 1 2 C0.34 1.67 -0.32 1.34 -1 1 C-0.67 0.67 -0.34 0.34 0 0 Z " fill="#FFFF00" transform="translate(541,866)"/>
<path d="M0 0 C3 1 3 1 3 1 Z " fill="#FFFF00" transform="translate(606,823)"/>
<path d="M0 0 C0.66 0.66 1.32 1.32 2 2 C1.34 2 0.68 2 0 2 C0 1.34 0 0.68 0 0 Z " fill="#FFFF00" transform="translate(403,814)"/>
<path d="M0 0 C0.66 0 1.32 0 2 0 C1.67 0.66 1.34 1.32 1 2 C0.67 1.34 0.34 0.68 0 0 Z " fill="#FFFF00" transform="translate(401,811)"/>
<path d="M0 0 C0.66 0.66 1.32 1.32 2 2 C1.34 2 0.68 2 0 2 C0 1.34 0 0.68 0 0 Z " fill="#F8FF00" transform="translate(377,790)"/>
<path d="M0 0 C3 1 3 1 3 1 Z " fill="#FFFF00" transform="translate(654,783)"/>
<path d="M0 0 C0.66 0 1.32 0 2 0 C1.67 0.66 1.34 1.32 1 2 C0.67 1.34 0.34 0.68 0 0 Z " fill="#FFFF00" transform="translate(364,779)"/>
<path d="M0 0 C0.99 0.495 0.99 0.495 2 1 C1.01 1.495 1.01 1.495 0 2 C0 1.34 0 0.68 0 0 Z " fill="#FFFF00" transform="translate(320,732)"/>
<path d="M0 0 C0.99 0.495 0.99 0.495 2 1 C1.01 1.495 1.01 1.495 0 2 C0 1.34 0 0.68 0 0 Z " fill="#FFFF00" transform="translate(707,725)"/>
<path d="" fill="#FFFF00" transform="translate(0,0)"/>
<path d="M0 0 C0.66 0 1.32 0 2 0 C1.67 0.66 1.34 1.32 1 2 C0.67 1.34 0.34 0.68 0 0 Z " fill="#FFFF00" transform="translate(525,712)"/>
<path d="M0 0 C3 1 3 1 3 1 Z " fill="#FFFF00" transform="translate(536,709)"/>
<path d="M0 0 C0.66 0.66 1.32 1.32 2 2 C1.34 2 0.68 2 0 2 C0 1.34 0 0.68 0 0 Z " fill="#FFFF00" transform="translate(740,678)"/>
<path d="M0 0 C0.66 0.66 1.32 1.32 2 2 C1.34 2 0.68 2 0 2 C0 1.34 0 0.68 0 0 Z " fill="#FFFF00" transform="translate(742,675)"/>
<path d="" fill="#FFFF00" transform="translate(0,0)"/>
<path d="M0 0 C0.66 0.66 1.32 1.32 2 2 C1.34 2 0.68 2 0 2 C0 1.34 0 0.68 0 0 Z " fill="#FFFF00" transform="translate(276,670)"/>
<path d="M0 0 C0.66 0.66 1.32 1.32 2 2 C1.34 2 0.68 2 0 2 C0 1.34 0 0.68 0 0 Z " fill="#FFFF00" transform="translate(600,667)"/>
<path d="" fill="#FFFF00" transform="translate(0,0)"/>
<path d="M0 0 C0.66 0 1.32 0 2 0 C1.67 0.66 1.34 1.32 1 2 C0.67 1.34 0.34 0.68 0 0 Z " fill="#FFFF00" transform="translate(605,664)"/>
<path d="M0 0 C0.33 0.66 0.66 1.32 1 2 C0.34 1.67 -0.32 1.34 -1 1 C-0.67 0.67 -0.34 0.34 0 0 Z " fill="#FFFF00" transform="translate(429,657)"/>
<path d="M0 0 C0.66 0.66 1.32 1.32 2 2 C1.34 2 0.68 2 0 2 C0 1.34 0 0.68 0 0 Z " fill="#FFFF00" transform="translate(576,645)"/>
<path d="M0 0 C0.66 0 1.32 0 2 0 C1.67 0.66 1.34 1.32 1 2 C0.67 1.34 0.34 0.68 0 0 Z " fill="#FFFF00" transform="translate(398,640)"/>
<path d="M0 0 C3 1 3 1 3 1 Z " fill="#FFFF00" transform="translate(560,637)"/>
<path d="" fill="#FFFF00" transform="translate(0,0)"/>
<path d="M0 0 C0.99 0.495 0.99 0.495 2 1 C1.01 1.495 1.01 1.495 0 2 C0 1.34 0 0.68 0 0 Z " fill="#FFFF00" transform="translate(528,620)"/>
<path d="M0 0 C3 1 3 1 3 1 Z " fill="#FFFF00" transform="translate(308,592)"/>
<path d="M0 0 C3 1 3 1 3 1 Z " fill="#FFFF00" transform="translate(293,584)"/>
<path d="M0 0 C0.33 0.66 0.66 1.32 1 2 C0.34 1.67 -0.32 1.34 -1 1 C-0.67 0.67 -0.34 0.34 0 0 Z " fill="#FFFF00" transform="translate(235,581)"/>
<path d="M0 0 C0.66 0.66 1.32 1.32 2 2 C1.34 2 0.68 2 0 2 C0 1.34 0 0.68 0 0 Z " fill="#FFFF00" transform="translate(448,578)"/>
<path d="" fill="#FFFF00" transform="translate(0,0)"/>
<path d="M0 0 C0.99 0.495 0.99 0.495 2 1 C1.01 1.495 1.01 1.495 0 2 C0 1.34 0 0.68 0 0 Z " fill="#FFFF00" transform="translate(404,558)"/>
<path d="" fill="#FFFF00" transform="translate(0,0)"/>
<path d="M0 0 C0.99 0.495 0.99 0.495 2 1 C1.01 1.495 1.01 1.495 0 2 C0 1.34 0 0.68 0 0 Z " fill="#FFFF00" transform="translate(660,548)"/>
<path d="M0 0 C0.66 0 1.32 0 2 0 C1.67 0.66 1.34 1.32 1 2 C0.67 1.34 0.34 0.68 0 0 Z " fill="#FFFF00" transform="translate(635,536)"/>
<path d="M0 0 C0.66 0 1.32 0 2 0 C1.67 0.66 1.34 1.32 1 2 C0.67 1.34 0.34 0.68 0 0 Z " fill="#FFFF00" transform="translate(355,532)"/>
<path d="M0 0 C0.66 0.66 1.32 1.32 2 2 C1.34 2 0.68 2 0 2 C0 1.34 0 0.68 0 0 Z " fill="#FFFF00" transform="translate(328,515)"/>
<path d="M0 0 C0.66 0.66 1.32 1.32 2 2 C1.34 2 0.68 2 0 2 C0 1.34 0 0.68 0 0 Z " fill="#FFFF00" transform="translate(298,501)"/>
<path d="M0 0 C0.66 0.66 1.32 1.32 2 2 C1.34 2 0.68 2 0 2 C0 1.34 0 0.68 0 0 Z " fill="#FFFF00" transform="translate(805,494)"/>
<path d="M0 0 C0.66 0 1.32 0 2 0 C1.67 0.66 1.34 1.32 1 2 C0.67 1.34 0.34 0.68 0 0 Z " fill="#FFFF00" transform="translate(545,489)"/>
<path d="M0 0 C0.99 0.495 0.99 0.495 2 1 C1.01 1.495 1.01 1.495 0 2 C0 1.34 0 0.68 0 0 Z " fill="#FFFF00" transform="translate(271,485)"/>
<path d="M0 0 C0.99 0.495 0.99 0.495 2 1 C1.01 1.495 1.01 1.495 0 2 C0 1.34 0 0.68 0 0 Z " fill="#FFFF00" transform="translate(712,484)"/>
<path d="" fill="#FFFF00" transform="translate(0,0)"/>
<path d="" fill="#FFFF00" transform="translate(0,0)"/>
<path d="M0 0 C0.99 0.495 0.99 0.495 2 1 C1.01 1.495 1.01 1.495 0 2 C0 1.34 0 0.68 0 0 Z " fill="#FFFF00" transform="translate(211,454)"/>
<path d="M0 0 C3 1 3 1 3 1 Z " fill="#FFFF00" transform="translate(592,422)"/>
<path d="M0 0 C0.66 0 1.32 0 2 0 C1.67 0.66 1.34 1.32 1 2 C0.67 1.34 0.34 0.68 0 0 Z " fill="#FFFF00" transform="translate(410,417)"/>
<path d="" fill="#FFFF00" transform="translate(0,0)"/>
<path d="M0 0 C3 1 3 1 3 1 Z " fill="#FFFF00" transform="translate(365,396)"/>
<path d="M0 0 C0.66 0.66 1.32 1.32 2 2 C1.34 2 0.68 2 0 2 C0 1.34 0 0.68 0 0 Z " fill="#FFFF00" transform="translate(525,387)"/>
<path d="M0 0 C3 1 3 1 3 1 Z " fill="#FFFF00" transform="translate(520,387)"/>
<path d="M0 0 C0.99 0.495 0.99 0.495 2 1 C1.01 1.495 1.01 1.495 0 2 C0 1.34 0 0.68 0 0 Z " fill="#FFFF00" transform="translate(477,363)"/>
<path d="M0 0 C3 1 3 1 3 1 Z " fill="#FFFF00" transform="translate(427,342)"/>
<path d="M0 0 C3 1 3 1 3 1 Z " fill="#FFFF00" transform="translate(400,327)"/>
<path d="M0 0 C0.66 0 1.32 0 2 0 C1.67 0.66 1.34 1.32 1 2 C0.67 1.34 0.34 0.68 0 0 Z " fill="#FFFF00" transform="translate(667,308)"/>
<path d="M0 0 C3 1 3 1 3 1 Z " fill="#FFFF00" transform="translate(632,291)"/>
<path d="M0 0 C0.66 0 1.32 0 2 0 C1.67 0.66 1.34 1.32 1 2 C0.67 1.34 0.34 0.68 0 0 Z " fill="#FFFF00" transform="translate(317,274)"/>
<path d="" fill="#FFFF00" transform="translate(0,0)"/>
<path d="M0 0 C0.66 0 1.32 0 2 0 C1.67 0.66 1.34 1.32 1 2 C0.67 1.34 0.34 0.68 0 0 Z " fill="#FFFF00" transform="translate(755,224)"/>
<path d="" fill="#FFFF00" transform="translate(0,0)"/>
<path d="M0 0 C0.33 0.66 0.66 1.32 1 2 C0.34 1.67 -0.32 1.34 -1 1 C-0.67 0.67 -0.34 0.34 0 0 Z " fill="#FFFF00" transform="translate(288,208)"/>
<path d="M0 0 C3 1 3 1 3 1 Z " fill="#FFFF00" transform="translate(711,200)"/>
<path d="M0 0 C0.66 0 1.32 0 2 0 C1.67 0.66 1.34 1.32 1 2 C0.67 1.34 0.34 0.68 0 0 Z " fill="#FFFF00" transform="translate(630,168)"/>
<path d="M0 0 C3 1 3 1 3 1 Z " fill="#FFFF00" transform="translate(625,168)"/>
<path d="M0 0 C3 1 3 1 3 1 Z " fill="#FFFF00" transform="translate(403,168)"/>
<path d="M0 0 C3 1 3 1 3 1 Z " fill="#FFFF00" transform="translate(581,160)"/>
<path d="M0 0 C3 1 3 1 3 1 Z " fill="#FFFF00" transform="translate(559,157)"/>
<path d="M0 0 C3 1 3 1 3 1 Z " fill="#FFFF00" transform="translate(456,157)"/>
<path d="M0 0 C3 1 3 1 3 1 Z " fill="#FFFF00" transform="translate(465,156)"/>
<path d="M0 0 C3 1 3 1 3 1 Z " fill="#FFFF00" transform="translate(533,154)"/>
<path d="M0 0 C2 1 2 1 2 1 Z " fill="#FFFF00" transform="translate(520,878)"/>
<path d="M0 0 C2 1 2 1 2 1 Z " fill="#FFFF00" transform="translate(522,877)"/>
<path d="" fill="#FFFF00" transform="translate(0,0)"/>
<path d="M0 0 C2 1 2 1 2 1 Z " fill="#FFFF00" transform="translate(499,875)"/>
<path d="M0 0 C2 1 2 1 2 1 Z " fill="#FFFF00" transform="translate(538,868)"/>
<path d="" fill="#FFFF00" transform="translate(0,0)"/>
<path d="M0 0 C2 1 2 1 2 1 Z " fill="#FFFF00" transform="translate(572,847)"/>
<path d="M0 0 C2 1 2 1 2 1 Z " fill="#FFFF00" transform="translate(444,843)"/>
<path d="M0 0 C2 1 2 1 2 1 Z " fill="#FFFF00" transform="translate(435,838)"/>
<path d="M0 0 C2 1 2 1 2 1 Z " fill="#FFFF00" transform="translate(432,837)"/>
<path d="M0 0 C2 1 2 1 2 1 Z " fill="#FFFF00" transform="translate(601,827)"/>
<path d="" fill="#FFFF00" transform="translate(0,0)"/>
<path d="M0 0 C2 1 2 1 2 1 Z " fill="#FFFF00" transform="translate(621,815)"/>
<path d="M0 0 C2 1 2 1 2 1 Z " fill="#FFFF00" transform="translate(686,750)"/>
<path d="M0 0 C2 1 2 1 2 1 Z " fill="#FFFF00" transform="translate(313,725)"/>
<path d="M0 0 C2 1 2 1 2 1 Z " fill="#FFFF00" transform="translate(530,715)"/>
<path d="M0 0 C2 1 2 1 2 1 Z " fill="#FFFF00" transform="translate(718,714)"/>
<path d="" fill="#FFFF00" transform="translate(0,0)"/>
<path d="M0 0 C2 1 2 1 2 1 Z " fill="#FFFF00" transform="translate(558,696)"/>
<path d="M0 0 C2 1 2 1 2 1 Z " fill="#FFFF00" transform="translate(555,696)"/>
<path d="M0 0 C2 1 2 1 2 1 Z " fill="#FFFF00" transform="translate(501,696)"/>
<path d="M0 0 C2 1 2 1 2 1 Z " fill="#FFFF00" transform="translate(288,693)"/>
<path d="M0 0 C2 1 2 1 2 1 Z " fill="#FFFF00" transform="translate(486,688)"/>
<path d="" fill="#FFFF00" transform="translate(0,0)"/>
<path d="M0 0 C2 1 2 1 2 1 Z " fill="#FFFF00" transform="translate(470,680)"/>
<path d="" fill="#FFFF00" transform="translate(0,0)"/>
<path d="M0 0 C2 1 2 1 2 1 Z " fill="#FFFF00" transform="translate(602,667)"/>
<path d="" fill="#FFFF00" transform="translate(0,0)"/>
<path d="M0 0 C2 1 2 1 2 1 Z " fill="#FFFF00" transform="translate(748,663)"/>
<path d="" fill="#FFFF00" transform="translate(0,0)"/>
<path d="" fill="#FFFF00" transform="translate(0,0)"/>
<path d="M0 0 C2 1 2 1 2 1 Z " fill="#FFFF00" transform="translate(416,651)"/>
<path d="M0 0 C2 1 2 1 2 1 Z " fill="#FFFF00" transform="translate(544,631)"/>
<path d="" fill="#FFFF00" transform="translate(0,0)"/>
<path d="M0 0 C2 1 2 1 2 1 Z " fill="#FFFF00" transform="translate(530,621)"/>
<path d="" fill="#FFFF00" transform="translate(0,0)"/>
<path d="" fill="#FFFF00" transform="translate(0,0)"/>
<path d="M0 0 C2 1 2 1 2 1 Z " fill="#FFFF00" transform="translate(340,609)"/>
<path d="M0 0 C2 1 2 1 2 1 Z " fill="#FFFF00" transform="translate(242,604)"/>
<path d="M0 0 C2 1 2 1 2 1 Z " fill="#FFFF00" transform="translate(484,597)"/>
<path d="M0 0 C2 1 2 1 2 1 Z " fill="#FFFF00" transform="translate(466,588)"/>
<path d="M0 0 C2 1 2 1 2 1 Z " fill="#FFFF00" transform="translate(733,586)"/>
<path d="" fill="#FFFF00" transform="translate(0,0)"/>
<path d="" fill="#FFFF00" transform="translate(0,0)"/>
<path d="" fill="#FFFF00" transform="translate(0,0)"/>
<path d="" fill="#FFFF00" transform="translate(0,0)"/>
<path d="M0 0 C2 1 2 1 2 1 Z " fill="#FFFF00" transform="translate(232,577)"/>
<path d="" fill="#FFFF00" transform="translate(0,0)"/>
<path d="M0 0 C2 1 2 1 2 1 Z " fill="#FFFF00" transform="translate(425,567)"/>
<path d="M0 0 C2 1 2 1 2 1 Z " fill="#FFFF00" transform="translate(685,562)"/>
<path d="" fill="#FFFF00" transform="translate(0,0)"/>
<path d="M0 0 C2 1 2 1 2 1 Z " fill="#FFFF00" transform="translate(405,556)"/>
<path d="M0 0 C2 1 2 1 2 1 Z " fill="#FFFF00" transform="translate(403,555)"/>
<path d="M0 0 C2 1 2 1 2 1 Z " fill="#FFFF00" transform="translate(389,548)"/>
<path d="M0 0 C2 1 2 1 2 1 Z " fill="#FFFF00" transform="translate(373,539)"/>
<path d="M0 0 C2 1 2 1 2 1 Z " fill="#FFFF00" transform="translate(627,532)"/>
<path d="M0 0 C2 1 2 1 2 1 Z " fill="#FFFF00" transform="translate(792,526)"/>
<path d="M0 0 C2 1 2 1 2 1 Z " fill="#FFFF00" transform="translate(346,525)"/>
<path d="M0 0 C2 1 2 1 2 1 Z " fill="#FFFF00" transform="translate(612,524)"/>
<path d="" fill="#FFFF00" transform="translate(0,0)"/>
<path d="" fill="#FFFF00" transform="translate(0,0)"/>
<path d="M0 0 C2 1 2 1 2 1 Z " fill="#FFFF00" transform="translate(330,517)"/>
<path d="M0 0 C2 1 2 1 2 1 Z " fill="#FFFF00" transform="translate(762,510)"/>
<path d="" fill="#FFFF00" transform="translate(0,0)"/>
<path d="M0 0 C2 1 2 1 2 1 Z " fill="#FFFF00" transform="translate(698,477)"/>
<path d="" fill="#FFFF00" transform="translate(0,0)"/>
<path d="M0 0 C2 1 2 1 2 1 Z " fill="#FFFF00" transform="translate(233,465)"/>
<path d="" fill="#FFFF00" transform="translate(0,0)"/>
<path d="" fill="#FFFF00" transform="translate(0,0)"/>
<path d="" fill="#FFFF00" transform="translate(0,0)"/>
<path d="M0 0 C2 1 2 1 2 1 Z " fill="#FFFF00" transform="translate(470,448)"/>
<path d="M0 0 C2 1 2 1 2 1 Z " fill="#FFFF00" transform="translate(632,445)"/>
<path d="M0 0 C2 1 2 1 2 1 Z " fill="#FFFF00" transform="translate(444,437)"/>
<path d="" fill="#FFFF00" transform="translate(0,0)"/>
<path d="M0 0 C2 1 2 1 2 1 Z " fill="#FFFF00" transform="translate(579,415)"/>
<path d="M0 0 C2 1 2 1 2 1 Z " fill="#FFFF00" transform="translate(571,414)"/>
<path d="" fill="#FFFF00" transform="translate(0,0)"/>
<path d="M0 0 C2 1 2 1 2 1 Z " fill="#FFFF00" transform="translate(554,405)"/>
<path d="" fill="#FFFF00" transform="translate(0,0)"/>
<path d="M0 0 C2 1 2 1 2 1 Z " fill="#FFFF00" transform="translate(540,395)"/>
<path d="M0 0 C2 1 2 1 2 1 Z " fill="#FFFF00" transform="translate(537,395)"/>
<path d="M0 0 C2 1 2 1 2 1 Z " fill="#FFFF00" transform="translate(532,391)"/>
<path d="M0 0 C2 1 2 1 2 1 Z " fill="#FFFF00" transform="translate(506,381)"/>
<path d="M0 0 C2 1 2 1 2 1 Z " fill="#FFFF00" transform="translate(504,377)"/>
<path d="M0 0 C2 1 2 1 2 1 Z " fill="#FFFF00" transform="translate(329,376)"/>
<path d="M0 0 C2 1 2 1 2 1 Z " fill="#FFFF00" transform="translate(488,373)"/>
<path d="M0 0 C2 1 2 1 2 1 Z " fill="#FFFF00" transform="translate(468,359)"/>
<path d="M0 0 C2 1 2 1 2 1 Z " fill="#FFFF00" transform="translate(701,320)"/>
<path d="M0 0 C2 1 2 1 2 1 Z " fill="#FFFF00" transform="translate(388,318)"/>
<path d="M0 0 C2 1 2 1 2 1 Z " fill="#FFFF00" transform="translate(678,314)"/>
<path d="" fill="#FFFF00" transform="translate(0,0)"/>
<path d="" fill="#FFFF00" transform="translate(0,0)"/>
<path d="" fill="#FFFF00" transform="translate(0,0)"/>
<path d="" fill="#FFFF00" transform="translate(0,0)"/>
<path d="" fill="#FFFF00" transform="translate(0,0)"/>
<path d="" fill="#FFFF00" transform="translate(0,0)"/>
<path d="" fill="#FFFF00" transform="translate(0,0)"/>
<path d="M0 0 C2 1 2 1 2 1 Z " fill="#FFFF00" transform="translate(782,241)"/>
<path d="" fill="#FFFF00" transform="translate(0,0)"/>
<path d="M0 0 C2 1 2 1 2 1 Z " fill="#FFFF00" transform="translate(240,240)"/>
<path d="" fill="#FFFF00" transform="translate(0,0)"/>
<path d="M0 0 C2 1 2 1 2 1 Z " fill="#FFFF00" transform="translate(247,232)"/>
<path d="" fill="#FFFF00" transform="translate(0,0)"/>
<path d="" fill="#FFFF00" transform="translate(0,0)"/>
<path d="M0 0 C2 1 2 1 2 1 Z " fill="#FFFF00" transform="translate(272,218)"/>
<path d="" fill="#FFFF00" transform="translate(0,0)"/>
<path d="M0 0 C2 1 2 1 2 1 Z " fill="#FFFF00" transform="translate(281,213)"/>
<path d="" fill="#FFFF00" transform="translate(0,0)"/>
<path d="M0 0 C2 1 2 1 2 1 Z " fill="#FFFF00" transform="translate(715,200)"/>
<path d="" fill="#FFFF00" transform="translate(0,0)"/>
<path d="" fill="#FFFF00" transform="translate(0,0)"/>
<path d="" fill="#FFFF00" transform="translate(0,0)"/>
<path d="M0 0 C2 1 2 1 2 1 Z " fill="#FFFF00" transform="translate(593,161)"/>
<path d="M0 0 C2 1 2 1 2 1 Z " fill="#FFFF00" transform="translate(443,160)"/>
<path d="M0 0 C2 1 2 1 2 1 Z " fill="#FFFF00" transform="translate(460,157)"/>
<path d="M0 0 C2 1 2 1 2 1 Z " fill="#FFFF00" transform="translate(551,156)"/>
<path d="" fill="#FFFF00" transform="translate(0,0)"/>
<path d="M0 0 C2 1 2 1 2 1 Z " fill="#FFFF00" transform="translate(486,154)"/>
<path d="" fill="#FFFF00" transform="translate(0,0)"/>
<path d="" fill="#FFFF00" transform="translate(0,0)"/>
<path d="" fill="#FFFF00" transform="translate(0,0)"/>
<path d="" fill="#FFFF00" transform="translate(0,0)"/>
<path d="" fill="#FFFF00" transform="translate(0,0)"/>
<path d="" fill="#FFFF00" transform="translate(0,0)"/>
<path d="" fill="#FFFF00" transform="translate(0,0)"/>
<path d="" fill="#FFFF00" transform="translate(0,0)"/>
<path d="" fill="#FFFF00" transform="translate(0,0)"/>
<path d="" fill="#FFFF00" transform="translate(0,0)"/>
<path d="" fill="#FFFF00" transform="translate(0,0)"/>
<path d="" fill="#FFFF00" transform="translate(0,0)"/>
<path d="" fill="#FFFF00" transform="translate(0,0)"/>
<path d="" fill="#FFFF00" transform="translate(0,0)"/>
<path d="" fill="#FFFF00" transform="translate(0,0)"/>
<path d="" fill="#FFFF00" transform="translate(0,0)"/>
<path d="" fill="#FFFF00" transform="translate(0,0)"/>
<path d="" fill="#FFFF00" transform="translate(0,0)"/>
<path d="" fill="#FFFF00" transform="translate(0,0)"/>
<path d="" fill="#FFFF00" transform="translate(0,0)"/>
<path d="" fill="#FFFF00" transform="translate(0,0)"/>
<path d="" fill="#FFFF00" transform="translate(0,0)"/>
<path d="" fill="#FFFF00" transform="translate(0,0)"/>
<path d="" fill="#FFFF00" transform="translate(0,0)"/>
<path d="" fill="#FFFF00" transform="translate(0,0)"/>
<path d="" fill="#FFFF00" transform="translate(0,0)"/>
<path d="" fill="#FFFF00" transform="translate(0,0)"/>
<path d="" fill="#FFFF00" transform="translate(0,0)"/>
<path d="" fill="#FFFF00" transform="translate(0,0)"/>
<path d="" fill="#FFFF00" transform="translate(0,0)"/>
<path d="" fill="#FFFF00" transform="translate(0,0)"/>
<path d="" fill="#FFFF00" transform="translate(0,0)"/>
<path d="" fill="#FFFF00" transform="translate(0,0)"/>
<path d="" fill="#FFFF00" transform="translate(0,0)"/>
<path d="" fill="#FFFF00" transform="translate(0,0)"/>
<path d="" fill="#FFFF00" transform="translate(0,0)"/>
<path d="" fill="#FFFF00" transform="translate(0,0)"/>
<path d="" fill="#FFFF00" transform="translate(0,0)"/>
<path d="" fill="#FFFF00" transform="translate(0,0)"/>
<path d="" fill="#FFFF00" transform="translate(0,0)"/>
<path d="" fill="#FFFF00" transform="translate(0,0)"/>
<path d="" fill="#FFFF00" transform="translate(0,0)"/>
<path d="" fill="#FFFF00" transform="translate(0,0)"/>
<path d="" fill="#FFFF00" transform="translate(0,0)"/>
<path d="" fill="#FFFF00" transform="translate(0,0)"/>
<path d="" fill="#FFFF00" transform="translate(0,0)"/>
<path d="" fill="#FFFF00" transform="translate(0,0)"/>
<path d="" fill="#FFFF00" transform="translate(0,0)"/>
<path d="" fill="#FFFF00" transform="translate(0,0)"/>
<path d="" fill="#FFFF00" transform="translate(0,0)"/>
<path d="" fill="#FFFF00" transform="translate(0,0)"/>
<path d="" fill="#FFFF00" transform="translate(0,0)"/>
<path d="" fill="#FFFF00" transform="translate(0,0)"/>
<path d="" fill="#FFFF00" transform="translate(0,0)"/>
<path d="" fill="#FFFF00" transform="translate(0,0)"/>
<path d="" fill="#FFFF00" transform="translate(0,0)"/>
<path d="" fill="#FFFF00" transform="translate(0,0)"/>
<path d="" fill="#FFFF00" transform="translate(0,0)"/>
<path d="" fill="#FFFF00" transform="translate(0,0)"/>
<path d="" fill="#FFFF00" transform="translate(0,0)"/>
<path d="" fill="#FFFF00" transform="translate(0,0)"/>
<path d="" fill="#FFFF00" transform="translate(0,0)"/>
<path d="" fill="#FFFF00" transform="translate(0,0)"/>
<path d="" fill="#FFFF00" transform="translate(0,0)"/>
<path d="" fill="#FFFF00" transform="translate(0,0)"/>
<path d="" fill="#FFFF00" transform="translate(0,0)"/>
<path d="" fill="#FFFF00" transform="translate(0,0)"/>
<path d="" fill="#FFFF00" transform="translate(0,0)"/>
<path d="" fill="#FFFF00" transform="translate(0,0)"/>
<path d="" fill="#FFFF00" transform="translate(0,0)"/>
<path d="" fill="#FFFF00" transform="translate(0,0)"/>
<path d="" fill="#FFFF00" transform="translate(0,0)"/>
<path d="" fill="#FFFF00" transform="translate(0,0)"/>
<path d="" fill="#FFFF00" transform="translate(0,0)"/>
<path d="" fill="#FFFF00" transform="translate(0,0)"/>
<path d="" fill="#FFFF00" transform="translate(0,0)"/>
<path d="" fill="#FFFF00" transform="translate(0,0)"/>
<path d="" fill="#FFFF00" transform="translate(0,0)"/>
<path d="" fill="#FFFF00" transform="translate(0,0)"/>
<path d="" fill="#FFFF00" transform="translate(0,0)"/>
<path d="" fill="#FFFF00" transform="translate(0,0)"/>
<path d="" fill="#FFFF00" transform="translate(0,0)"/>
<path d="" fill="#FFFF00" transform="translate(0,0)"/>
<path d="" fill="#FFFF00" transform="translate(0,0)"/>
<path d="" fill="#FFFF00" transform="translate(0,0)"/>
<path d="" fill="#FFFF00" transform="translate(0,0)"/>
<path d="" fill="#FFFF00" transform="translate(0,0)"/>
<path d="" fill="#FFFF00" transform="translate(0,0)"/>
<path d="" fill="#FFFF00" transform="translate(0,0)"/>
<path d="" fill="#FFFF00" transform="translate(0,0)"/>
<path d="" fill="#FFFF00" transform="translate(0,0)"/>
<path d="" fill="#FFFF00" transform="translate(0,0)"/>
<path d="" fill="#FFFF00" transform="translate(0,0)"/>
<path d="" fill="#FFFF00" transform="translate(0,0)"/>
<path d="" fill="#FFFF00" transform="translate(0,0)"/>
<path d="" fill="#FFFF00" transform="translate(0,0)"/>
<path d="" fill="#FFFF00" transform="translate(0,0)"/>
<path d="" fill="#FFFF00" transform="translate(0,0)"/>
<path d="" fill="#FFFF00" transform="translate(0,0)"/>
<path d="" fill="#FFFF00" transform="translate(0,0)"/>
<path d="" fill="#FFFF00" transform="translate(0,0)"/>
<path d="" fill="#FFFF00" transform="translate(0,0)"/>
<path d="" fill="#FFFF00" transform="translate(0,0)"/>
<path d="" fill="#FFFF00" transform="translate(0,0)"/>
<path d="" fill="#FFFF00" transform="translate(0,0)"/>
<path d="" fill="#FFFF00" transform="translate(0,0)"/>
<path d="" fill="#FFFF00" transform="translate(0,0)"/>
<path d="" fill="#FFFF00" transform="translate(0,0)"/>
<path d="" fill="#FFFF00" transform="translate(0,0)"/>
<path d="" fill="#FFFF00" transform="translate(0,0)"/>
<path d="" fill="#FFFF00" transform="translate(0,0)"/>
<path d="" fill="#FFFF00" transform="translate(0,0)"/>
<path d="" fill="#FFFF00" transform="translate(0,0)"/>
<path d="" fill="#FFFF00" transform="translate(0,0)"/>
<path d="" fill="#FFFF00" transform="translate(0,0)"/>
<path d="" fill="#FFFF00" transform="translate(0,0)"/>
<path d="" fill="#FFFF00" transform="translate(0,0)"/>
<path d="" fill="#FFFF00" transform="translate(0,0)"/>
<path d="" fill="#FFFF00" transform="translate(0,0)"/>
<path d="" fill="#FFFF00" transform="translate(0,0)"/>
<path d="" fill="#FFFF00" transform="translate(0,0)"/>
<path d="" fill="#FFFF00" transform="translate(0,0)"/>
<path d="" fill="#FFFF00" transform="translate(0,0)"/>
<path d="" fill="#FFFF00" transform="translate(0,0)"/>
<path d="" fill="#FFFF00" transform="translate(0,0)"/>
<path d="" fill="#FFFF00" transform="translate(0,0)"/>
<path d="" fill="#FFFF00" transform="translate(0,0)"/>
<path d="" fill="#FFFF00" transform="translate(0,0)"/>
<path d="" fill="#FFFF00" transform="translate(0,0)"/>
<path d="" fill="#FFFF00" transform="translate(0,0)"/>
<path d="" fill="#FFFF00" transform="translate(0,0)"/>
<path d="" fill="#FFFF00" transform="translate(0,0)"/>
<path d="" fill="#FFFF00" transform="translate(0,0)"/>
<path d="" fill="#FFFF00" transform="translate(0,0)"/>
<path d="" fill="#FFFF00" transform="translate(0,0)"/>
<path d="" fill="#FFFF00" transform="translate(0,0)"/>
<path d="" fill="#FFFF00" transform="translate(0,0)"/>
<path d="" fill="#FFFF00" transform="translate(0,0)"/>
<path d="" fill="#FFFF00" transform="translate(0,0)"/>
<path d="" fill="#FFFF00" transform="translate(0,0)"/>
<path d="" fill="#FFFF00" transform="translate(0,0)"/>
<path d="" fill="#FFFF00" transform="translate(0,0)"/>
<path d="" fill="#FFFF00" transform="translate(0,0)"/>
<path d="" fill="#FFFF00" transform="translate(0,0)"/>
<path d="" fill="#FFFF00" transform="translate(0,0)"/>
<path d="" fill="#FFFF00" transform="translate(0,0)"/>
<path d="" fill="#FFFF00" transform="translate(0,0)"/>
<path d="" fill="#FFFF00" transform="translate(0,0)"/>
<path d="" fill="#FFFF00" transform="translate(0,0)"/>
<path d="" fill="#FFFF00" transform="translate(0,0)"/>
<path d="" fill="#FFFF00" transform="translate(0,0)"/>
<path d="" fill="#FFFF00" transform="translate(0,0)"/>
<path d="" fill="#FFFF00" transform="translate(0,0)"/>
<path d="" fill="#FFFF00" transform="translate(0,0)"/>
<path d="" fill="#FFFF00" transform="translate(0,0)"/>
<path d="" fill="#FFFF00" transform="translate(0,0)"/>
<path d="" fill="#FFFF00" transform="translate(0,0)"/>
<path d="" fill="#FFFF00" transform="translate(0,0)"/>
<path d="" fill="#FFFF00" transform="translate(0,0)"/>
<path d="" fill="#FFFF00" transform="translate(0,0)"/>
<path d="" fill="#FFFF00" transform="translate(0,0)"/>
<path d="" fill="#FFFF00" transform="translate(0,0)"/>
<path d="" fill="#FFFF00" transform="translate(0,0)"/>
<path d="" fill="#FFFF00" transform="translate(0,0)"/>
<path d="" fill="#FFFF00" transform="translate(0,0)"/>
<path d="" fill="#FFFF00" transform="translate(0,0)"/>
<path d="" fill="#FFFF00" transform="translate(0,0)"/>
<path d="" fill="#FFFF00" transform="translate(0,0)"/>
<path d="" fill="#FFFF00" transform="translate(0,0)"/>
<path d="" fill="#FFFF00" transform="translate(0,0)"/>
<path d="" fill="#FFFF00" transform="translate(0,0)"/>
<path d="" fill="#FFFF00" transform="translate(0,0)"/>
<path d="" fill="#FFFF00" transform="translate(0,0)"/>
<path d="" fill="#FFFF00" transform="translate(0,0)"/>
<path d="" fill="#FFFF00" transform="translate(0,0)"/>
<path d="" fill="#FFFF00" transform="translate(0,0)"/>
<path d="" fill="#FFFF00" transform="translate(0,0)"/>
<path d="" fill="#FFFF00" transform="translate(0,0)"/>
<path d="" fill="#FFFF00" transform="translate(0,0)"/>
<path d="" fill="#FFFF00" transform="translate(0,0)"/>
<path d="" fill="#FFFF00" transform="translate(0,0)"/>
<path d="" fill="#FFFF00" transform="translate(0,0)"/>
<path d="" fill="#FFFF00" transform="translate(0,0)"/>
<path d="" fill="#FFFF00" transform="translate(0,0)"/>
<path d="" fill="#FFFF00" transform="translate(0,0)"/>
<path d="" fill="#FFFF00" transform="translate(0,0)"/>
<path d="" fill="#FFFF00" transform="translate(0,0)"/>
<path d="" fill="#FFFF00" transform="translate(0,0)"/>
<path d="" fill="#FFFF00" transform="translate(0,0)"/>
<path d="" fill="#FFFF00" transform="translate(0,0)"/>
<path d="" fill="#FFFF00" transform="translate(0,0)"/>
<path d="" fill="#FFFF00" transform="translate(0,0)"/>
<path d="" fill="#FFFF00" transform="translate(0,0)"/>
<path d="" fill="#FFFF00" transform="translate(0,0)"/>
<path d="" fill="#FFFF00" transform="translate(0,0)"/>
<path d="" fill="#FFFF00" transform="translate(0,0)"/>
<path d="" fill="#FFFF00" transform="translate(0,0)"/>
<path d="" fill="#FFFF00" transform="translate(0,0)"/>
<path d="" fill="#FFFF00" transform="translate(0,0)"/>
<path d="" fill="#FFFF00" transform="translate(0,0)"/>
<path d="" fill="#FFFF00" transform="translate(0,0)"/>
<path d="" fill="#FFFF00" transform="translate(0,0)"/>
<path d="" fill="#FFFF00" transform="translate(0,0)"/>
<path d="" fill="#FFFF00" transform="translate(0,0)"/>
<path d="" fill="#FFFF00" transform="translate(0,0)"/>
<path d="" fill="#FFFF00" transform="translate(0,0)"/>
<path d="" fill="#FFFF00" transform="translate(0,0)"/>
<path d="" fill="#FFFF00" transform="translate(0,0)"/>
<path d="" fill="#FFFF00" transform="translate(0,0)"/>
<path d="" fill="#FFFF00" transform="translate(0,0)"/>
<path d="" fill="#FFFF00" transform="translate(0,0)"/>
<path d="" fill="#FFFF00" transform="translate(0,0)"/>
<path d="" fill="#FFFF00" transform="translate(0,0)"/>
<path d="" fill="#FFFF00" transform="translate(0,0)"/>
<path d="" fill="#FFFF00" transform="translate(0,0)"/>
<path d="" fill="#FFFF00" transform="translate(0,0)"/>
<path d="" fill="#FFFF00" transform="translate(0,0)"/>
<path d="" fill="#FFFF00" transform="translate(0,0)"/>
<path d="" fill="#FFFF00" transform="translate(0,0)"/>
<path d="" fill="#FFFF00" transform="translate(0,0)"/>
<path d="" fill="#FFFF00" transform="translate(0,0)"/>
<path d="" fill="#FFFF00" transform="translate(0,0)"/>
<path d="" fill="#FFFF00" transform="translate(0,0)"/>
<path d="" fill="#FFFF00" transform="translate(0,0)"/>
<path d="" fill="#FFFF00" transform="translate(0,0)"/>
<path d="" fill="#FFFF00" transform="translate(0,0)"/>
<path d="" fill="#FFFF00" transform="translate(0,0)"/>
<path d="" fill="#FFFF00" transform="translate(0,0)"/>
<path d="" fill="#FFFF00" transform="translate(0,0)"/>
<path d="" fill="#FFFF00" transform="translate(0,0)"/>
<path d="" fill="#FFFF00" transform="translate(0,0)"/>
<path d="" fill="#FFFF00" transform="translate(0,0)"/>
<path d="" fill="#FFFF00" transform="translate(0,0)"/>
<path d="" fill="#FFFF00" transform="translate(0,0)"/>
<path d="" fill="#FFFF00" transform="translate(0,0)"/>
<path d="" fill="#FFFF00" transform="translate(0,0)"/>
<path d="" fill="#FFFF00" transform="translate(0,0)"/>
<path d="" fill="#FFFF00" transform="translate(0,0)"/>
<path d="" fill="#FFFF00" transform="translate(0,0)"/>
<path d="" fill="#FFFF00" transform="translate(0,0)"/>
<path d="" fill="#FFFF00" transform="translate(0,0)"/>
<path d="" fill="#FFFF00" transform="translate(0,0)"/>
<path d="" fill="#FFFF00" transform="translate(0,0)"/>
<path d="" fill="#FFFF00" transform="translate(0,0)"/>
<path d="" fill="#FFFF00" transform="translate(0,0)"/>
<path d="" fill="#FFFF00" transform="translate(0,0)"/>
<path d="" fill="#FFFF00" transform="translate(0,0)"/>
<path d="" fill="#FFFF00" transform="translate(0,0)"/>
<path d="" fill="#FFFF00" transform="translate(0,0)"/>
<path d="" fill="#FFFF00" transform="translate(0,0)"/>
<path d="" fill="#FFFF00" transform="translate(0,0)"/>
<path d="" fill="#FFFF00" transform="translate(0,0)"/>
<path d="" fill="#FFFF00" transform="translate(0,0)"/>
<path d="" fill="#FFFF00" transform="translate(0,0)"/>
<path d="" fill="#FFFF00" transform="translate(0,0)"/>
<path d="" fill="#FFFF00" transform="translate(0,0)"/>
<path d="" fill="#FFFF00" transform="translate(0,0)"/>
<path d="" fill="#FFFF00" transform="translate(0,0)"/>
<path d="" fill="#FFFF00" transform="translate(0,0)"/>
<path d="" fill="#FFFF00" transform="translate(0,0)"/>
<path d="" fill="#FFFF00" transform="translate(0,0)"/>
<path d="" fill="#FFFF00" transform="translate(0,0)"/>
<path d="" fill="#FFFF00" transform="translate(0,0)"/>
<path d="" fill="#FFFF00" transform="translate(0,0)"/>
<path d="" fill="#FFFF00" transform="translate(0,0)"/>
<path d="" fill="#FFFF00" transform="translate(0,0)"/>
<path d="" fill="#FFFF00" transform="translate(0,0)"/>
<path d="" fill="#FFFF00" transform="translate(0,0)"/>
<path d="" fill="#FFFF00" transform="translate(0,0)"/>
<path d="" fill="#FFFF00" transform="translate(0,0)"/>
<path d="" fill="#FFFF00" transform="translate(0,0)"/>
<path d="" fill="#FFFF00" transform="translate(0,0)"/>
<path d="" fill="#FFFF00" transform="translate(0,0)"/>
<path d="" fill="#FFFF00" transform="translate(0,0)"/>
<path d="" fill="#FFFF00" transform="translate(0,0)"/>
<path d="" fill="#FFFF00" transform="translate(0,0)"/>
<path d="" fill="#FFFF00" transform="translate(0,0)"/>
<path d="" fill="#FFFF00" transform="translate(0,0)"/>
<path d="" fill="#FFFF00" transform="translate(0,0)"/>
<path d="" fill="#FFFF00" transform="translate(0,0)"/>
<path d="" fill="#FFFF00" transform="translate(0,0)"/>
<path d="" fill="#FFFF00" transform="translate(0,0)"/>
<path d="" fill="#FFFF00" transform="translate(0,0)"/>
<path d="" fill="#FFFF00" transform="translate(0,0)"/>
<path d="" fill="#FFFF00" transform="translate(0,0)"/>
<path d="" fill="#FFFF00" transform="translate(0,0)"/>
<path d="" fill="#FFFF00" transform="translate(0,0)"/>
<path d="" fill="#FFFF00" transform="translate(0,0)"/>
<path d="" fill="#FFFF00" transform="translate(0,0)"/>
<path d="" fill="#FFFF00" transform="translate(0,0)"/>
<path d="" fill="#FFFF00" transform="translate(0,0)"/>
<path d="" fill="#FFFF00" transform="translate(0,0)"/>
<path d="" fill="#FFFF00" transform="translate(0,0)"/>
<path d="" fill="#FFFF00" transform="translate(0,0)"/>
<path d="" fill="#FFFF00" transform="translate(0,0)"/>
<path d="" fill="#FFFF00" transform="translate(0,0)"/>
<path d="" fill="#FFFF00" transform="translate(0,0)"/>
<path d="" fill="#FFFF00" transform="translate(0,0)"/>
<path d="" fill="#FFFF00" transform="translate(0,0)"/>
<path d="" fill="#FFFF00" transform="translate(0,0)"/>
<path d="" fill="#FFFF00" transform="translate(0,0)"/>
<path d="" fill="#FFFF00" transform="translate(0,0)"/>
<path d="" fill="#FFFF00" transform="translate(0,0)"/>
<path d="" fill="#FFFF00" transform="translate(0,0)"/>
<path d="" fill="#FFFF00" transform="translate(0,0)"/>
<path d="" fill="#FFFF00" transform="translate(0,0)"/>
<path d="" fill="#FFFF00" transform="translate(0,0)"/>
<path d="" fill="#FFFF00" transform="translate(0,0)"/>
<path d="" fill="#FFFF00" transform="translate(0,0)"/>
<path d="" fill="#FFFF00" transform="translate(0,0)"/>
<path d="" fill="#FFFF00" transform="translate(0,0)"/>
<path d="" fill="#FFFF00" transform="translate(0,0)"/>
<path d="" fill="#FFFF00" transform="translate(0,0)"/>
<path d="" fill="#FFFF00" transform="translate(0,0)"/>
<path d="" fill="#FFFF00" transform="translate(0,0)"/>
<path d="" fill="#FFFF00" transform="translate(0,0)"/>
<path d="" fill="#FFFF00" transform="translate(0,0)"/>
<path d="" fill="#FFFF00" transform="translate(0,0)"/>
<path d="" fill="#FFFF00" transform="translate(0,0)"/>
<path d="" fill="#FFFF00" transform="translate(0,0)"/>
<path d="" fill="#FFFF00" transform="translate(0,0)"/>
<path d="" fill="#FFFF00" transform="translate(0,0)"/>
<path d="" fill="#FFFF00" transform="translate(0,0)"/>
<path d="" fill="#FFFF00" transform="translate(0,0)"/>
<path d="" fill="#FFFF00" transform="translate(0,0)"/>
<path d="" fill="#FFFF00" transform="translate(0,0)"/>
<path d="" fill="#FFFF00" transform="translate(0,0)"/>
<path d="" fill="#FFFF00" transform="translate(0,0)"/>
<path d="" fill="#FFFF00" transform="translate(0,0)"/>
<path d="" fill="#FFFF00" transform="translate(0,0)"/>
<path d="" fill="#FFFF00" transform="translate(0,0)"/>
<path d="" fill="#FFFF00" transform="translate(0,0)"/>
<path d="" fill="#FFFF00" transform="translate(0,0)"/>
<path d="" fill="#FFFF00" transform="translate(0,0)"/>
<path d="" fill="#FFFF00" transform="translate(0,0)"/>
<path d="" fill="#FFFF00" transform="translate(0,0)"/>
<path d="" fill="#FFFF00" transform="translate(0,0)"/>
<path d="" fill="#FFFF00" transform="translate(0,0)"/>
<path d="" fill="#FFFF00" transform="translate(0,0)"/>
<path d="" fill="#FFFF00" transform="translate(0,0)"/>
<path d="" fill="#FFFF00" transform="translate(0,0)"/>
<path d="" fill="#FFFF00" transform="translate(0,0)"/>
<path d="" fill="#FFFF00" transform="translate(0,0)"/>
<path d="" fill="#FFFF00" transform="translate(0,0)"/>
<path d="" fill="#FFFF00" transform="translate(0,0)"/>
<path d="" fill="#FFFF00" transform="translate(0,0)"/>
<path d="" fill="#FFFF00" transform="translate(0,0)"/>
<path d="" fill="#FFFF00" transform="translate(0,0)"/>
<path d="" fill="#FFFF00" transform="translate(0,0)"/>
<path d="" fill="#FFFF00" transform="translate(0,0)"/>
<path d="" fill="#FFFF00" transform="translate(0,0)"/>
<path d="" fill="#FFFF00" transform="translate(0,0)"/>
<path d="" fill="#FFFF00" transform="translate(0,0)"/>
<path d="" fill="#FFFF00" transform="translate(0,0)"/>
<path d="" fill="#FFFF00" transform="translate(0,0)"/>
<path d="" fill="#FFFF00" transform="translate(0,0)"/>
<path d="" fill="#FFFF00" transform="translate(0,0)"/>
<path d="" fill="#FFFF00" transform="translate(0,0)"/>
<path d="" fill="#FFFF00" transform="translate(0,0)"/>
<path d="" fill="#FFFF00" transform="translate(0,0)"/>
<path d="" fill="#FFFF00" transform="translate(0,0)"/>
<path d="" fill="#FFFF00" transform="translate(0,0)"/>
<path d="" fill="#FFFF00" transform="translate(0,0)"/>
<path d="" fill="#FFFF00" transform="translate(0,0)"/>
<path d="" fill="#FFFF00" transform="translate(0,0)"/>
<path d="" fill="#FFFF00" transform="translate(0,0)"/>
<path d="" fill="#FFFF00" transform="translate(0,0)"/>
<path d="" fill="#FFFF00" transform="translate(0,0)"/>
<path d="" fill="#FFFF00" transform="translate(0,0)"/>
<path d="" fill="#FFFF00" transform="translate(0,0)"/>
<path d="" fill="#FFFF00" transform="translate(0,0)"/>
<path d="" fill="#FFFF00" transform="translate(0,0)"/>
<path d="" fill="#FFFF00" transform="translate(0,0)"/>
<path d="" fill="#FFFF00" transform="translate(0,0)"/>
<path d="" fill="#FFFF00" transform="translate(0,0)"/>
<path d="" fill="#FFFF00" transform="translate(0,0)"/>
<path d="" fill="#FFFF00" transform="translate(0,0)"/>
<path d="" fill="#FFFF00" transform="translate(0,0)"/>
<path d="" fill="#FFFF00" transform="translate(0,0)"/>
<path d="" fill="#FFFF00" transform="translate(0,0)"/>
<path d="" fill="#FFFF00" transform="translate(0,0)"/>
<path d="" fill="#FFFF00" transform="translate(0,0)"/>
<path d="" fill="#FFFF00" transform="translate(0,0)"/>
<path d="" fill="#FFFF00" transform="translate(0,0)"/>
<path d="" fill="#FFFF00" transform="translate(0,0)"/>
<path d="" fill="#FFFF00" transform="translate(0,0)"/>
<path d="" fill="#FFFF00" transform="translate(0,0)"/>
<path d="" fill="#FFFF00" transform="translate(0,0)"/>
<path d="" fill="#FFFF00" transform="translate(0,0)"/>
<path d="" fill="#FFFF00" transform="translate(0,0)"/>
<path d="" fill="#FFFF00" transform="translate(0,0)"/>
<path d="" fill="#FFFF00" transform="translate(0,0)"/>
<path d="" fill="#FFFF00" transform="translate(0,0)"/>
<path d="" fill="#FFFF00" transform="translate(0,0)"/>
<path d="" fill="#FFFF00" transform="translate(0,0)"/>
<path d="" fill="#FFFF00" transform="translate(0,0)"/>
<path d="" fill="#FFFF00" transform="translate(0,0)"/>
<path d="" fill="#FFFF00" transform="translate(0,0)"/>
<path d="" fill="#FFFF00" transform="translate(0,0)"/>
<path d="" fill="#FFFF00" transform="translate(0,0)"/>
<path d="" fill="#FFFF00" transform="translate(0,0)"/>
<path d="" fill="#FFFF00" transform="translate(0,0)"/>
<path d="" fill="#FFFF00" transform="translate(0,0)"/>
<path d="" fill="#FFFF00" transform="translate(0,0)"/>
<path d="" fill="#FFFF00" transform="translate(0,0)"/>
<path d="" fill="#FFFF00" transform="translate(0,0)"/>
<path d="" fill="#FFFF00" transform="translate(0,0)"/>
<path d="" fill="#FFFF00" transform="translate(0,0)"/>
<path d="" fill="#FFFF00" transform="translate(0,0)"/>
<path d="" fill="#FFFF00" transform="translate(0,0)"/>
<path d="" fill="#FFFF00" transform="translate(0,0)"/>
<path d="" fill="#FFFF00" transform="translate(0,0)"/>
<path d="" fill="#FFFF00" transform="translate(0,0)"/>
<path d="" fill="#FFFF00" transform="translate(0,0)"/>
<path d="" fill="#FFFF00" transform="translate(0,0)"/>
<path d="" fill="#FFFF00" transform="translate(0,0)"/>
<path d="" fill="#FFFF00" transform="translate(0,0)"/>
<path d="" fill="#FFFF00" transform="translate(0,0)"/>
<path d="" fill="#FFFF00" transform="translate(0,0)"/>
<path d="" fill="#FFFF00" transform="translate(0,0)"/>
<path d="" fill="#FFFF00" transform="translate(0,0)"/>
<path d="" fill="#FFFF00" transform="translate(0,0)"/>
<path d="" fill="#FFFF00" transform="translate(0,0)"/>
<path d="" fill="#FFFF00" transform="translate(0,0)"/>
<path d="" fill="#FFFF00" transform="translate(0,0)"/>
<path d="" fill="#FFFF00" transform="translate(0,0)"/>
<path d="" fill="#FFFF00" transform="translate(0,0)"/>
<path d="" fill="#FFFF00" transform="translate(0,0)"/>
<path d="" fill="#FFFF00" transform="translate(0,0)"/>
<path d="" fill="#FFFF00" transform="translate(0,0)"/>
<path d="" fill="#FFFF00" transform="translate(0,0)"/>
<path d="" fill="#FFFF00" transform="translate(0,0)"/>
<path d="" fill="#FFFF00" transform="translate(0,0)"/>
<path d="" fill="#FFFF00" transform="translate(0,0)"/>
<path d="" fill="#FFFF00" transform="translate(0,0)"/>
<path d="" fill="#FFFF00" transform="translate(0,0)"/>
<path d="" fill="#FFFF00" transform="translate(0,0)"/>
<path d="" fill="#FFFF00" transform="translate(0,0)"/>
<path d="" fill="#FFFF00" transform="translate(0,0)"/>
<path d="" fill="#FFFF00" transform="translate(0,0)"/>
<path d="" fill="#FFFF00" transform="translate(0,0)"/>
<path d="" fill="#FFFF00" transform="translate(0,0)"/>
<path d="" fill="#FFFF00" transform="translate(0,0)"/>
<path d="" fill="#FFFF00" transform="translate(0,0)"/>
<path d="" fill="#FFFF00" transform="translate(0,0)"/>
<path d="" fill="#FFFF00" transform="translate(0,0)"/>
<path d="" fill="#FFFF00" transform="translate(0,0)"/>
<path d="" fill="#FFFF00" transform="translate(0,0)"/>
<path d="" fill="#FFFF00" transform="translate(0,0)"/>
<path d="" fill="#FFFF00" transform="translate(0,0)"/>
<path d="" fill="#FFFF00" transform="translate(0,0)"/>
<path d="" fill="#FFFF00" transform="translate(0,0)"/>
<path d="" fill="#FFFF00" transform="translate(0,0)"/>
<path d="" fill="#FFFF00" transform="translate(0,0)"/>
<path d="" fill="#FFFF00" transform="translate(0,0)"/>
<path d="" fill="#FFFF00" transform="translate(0,0)"/>
<path d="" fill="#FFFF00" transform="translate(0,0)"/>
<path d="" fill="#FFFF00" transform="translate(0,0)"/>
<path d="" fill="#FFFF00" transform="translate(0,0)"/>
<path d="" fill="#FFFF00" transform="translate(0,0)"/>
<path d="" fill="#FFFF00" transform="translate(0,0)"/>
<path d="" fill="#FFFF00" transform="translate(0,0)"/>
<path d="" fill="#FFFF00" transform="translate(0,0)"/>
<path d="" fill="#FFFF00" transform="translate(0,0)"/>
<path d="" fill="#FFFF00" transform="translate(0,0)"/>
<path d="" fill="#FFFF00" transform="translate(0,0)"/>
<path d="" fill="#FFFF00" transform="translate(0,0)"/>
<path d="" fill="#FFFF00" transform="translate(0,0)"/>
<path d="" fill="#FFFF00" transform="translate(0,0)"/>
<path d="" fill="#FFFF00" transform="translate(0,0)"/>
<path d="" fill="#FFFF00" transform="translate(0,0)"/>
<path d="" fill="#FFFF00" transform="translate(0,0)"/>
<path d="" fill="#FFFF00" transform="translate(0,0)"/>
<path d="" fill="#FFFF00" transform="translate(0,0)"/>
<path d="" fill="#FFFF00" transform="translate(0,0)"/>
<path d="" fill="#FFFF00" transform="translate(0,0)"/>
<path d="" fill="#FFFF00" transform="translate(0,0)"/>
<path d="" fill="#FFFF00" transform="translate(0,0)"/>
<path d="" fill="#FFFF00" transform="translate(0,0)"/>
<path d="" fill="#FFFF00" transform="translate(0,0)"/>
<path d="" fill="#FFFF00" transform="translate(0,0)"/>
<path d="" fill="#FFFF00" transform="translate(0,0)"/>
<path d="" fill="#FFFF00" transform="translate(0,0)"/>
<path d="" fill="#FFFF00" transform="translate(0,0)"/>
<path d="" fill="#FFFF00" transform="translate(0,0)"/>
<path d="" fill="#FFFF00" transform="translate(0,0)"/>
<path d="" fill="#FFFF00" transform="translate(0,0)"/>
<path d="" fill="#FFFF00" transform="translate(0,0)"/>
<path d="" fill="#FFFF00" transform="translate(0,0)"/>
<path d="" fill="#FFFF00" transform="translate(0,0)"/>
<path d="" fill="#FFFF00" transform="translate(0,0)"/>
<path d="" fill="#FFFF00" transform="translate(0,0)"/>
<path d="" fill="#FFFF00" transform="translate(0,0)"/>
<path d="" fill="#FFFF00" transform="translate(0,0)"/>
<path d="" fill="#FFFF00" transform="translate(0,0)"/>
<path d="" fill="#FFFF00" transform="translate(0,0)"/>
<path d="" fill="#FFFF00" transform="translate(0,0)"/>
<path d="" fill="#FFFF00" transform="translate(0,0)"/>
<path d="" fill="#FFFF00" transform="translate(0,0)"/>
<path d="" fill="#FFFF00" transform="translate(0,0)"/>
<path d="" fill="#FFFF00" transform="translate(0,0)"/>
<path d="" fill="#FFFF00" transform="translate(0,0)"/>
<path d="" fill="#FFFF00" transform="translate(0,0)"/>
<path d="" fill="#FFFF00" transform="translate(0,0)"/>
<path d="" fill="#FFFF00" transform="translate(0,0)"/>
<path d="" fill="#FFFF00" transform="translate(0,0)"/>
<path d="" fill="#FFFF00" transform="translate(0,0)"/>
<path d="" fill="#FFFF00" transform="translate(0,0)"/>
<path d="" fill="#FFFF00" transform="translate(0,0)"/>
<path d="" fill="#FFFF00" transform="translate(0,0)"/>
<path d="" fill="#FFFF00" transform="translate(0,0)"/>
<path d="" fill="#FFFF00" transform="translate(0,0)"/>
<path d="" fill="#FFFF00" transform="translate(0,0)"/>
<path d="" fill="#FFFF00" transform="translate(0,0)"/>
<path d="" fill="#FFFF00" transform="translate(0,0)"/>
<path d="" fill="#FFFF00" transform="translate(0,0)"/>
<path d="" fill="#FFFF00" transform="translate(0,0)"/>
<path d="" fill="#FFFF00" transform="translate(0,0)"/>
<path d="" fill="#FFFF00" transform="translate(0,0)"/>
<path d="" fill="#FFFF00" transform="translate(0,0)"/>
<path d="" fill="#FFFF00" transform="translate(0,0)"/>
<path d="" fill="#FFFF00" transform="translate(0,0)"/>
<path d="" fill="#FFFF00" transform="translate(0,0)"/>
<path d="" fill="#FFFF00" transform="translate(0,0)"/>
<path d="" fill="#FFFF00" transform="translate(0,0)"/>
<path d="" fill="#FFFF00" transform="translate(0,0)"/>
<path d="" fill="#FFFF00" transform="translate(0,0)"/>
<path d="" fill="#FFFF00" transform="translate(0,0)"/>
<path d="" fill="#FFFF00" transform="translate(0,0)"/>
<path d="" fill="#FFFF00" transform="translate(0,0)"/>
<path d="" fill="#FFFF00" transform="translate(0,0)"/>
<path d="" fill="#FFFF00" transform="translate(0,0)"/>
<path d="" fill="#FFFF00" transform="translate(0,0)"/>
<path d="" fill="#FFFF00" transform="translate(0,0)"/>
<path d="" fill="#FFFF00" transform="translate(0,0)"/>
<path d="" fill="#FFFF00" transform="translate(0,0)"/>
<path d="" fill="#FFFF00" transform="translate(0,0)"/>
<path d="" fill="#FFFF00" transform="translate(0,0)"/>
<path d="" fill="#FFFF00" transform="translate(0,0)"/>
<path d="" fill="#FFFF00" transform="translate(0,0)"/>
<path d="" fill="#FFFF00" transform="translate(0,0)"/>
<path d="" fill="#FFFF00" transform="translate(0,0)"/>
<path d="" fill="#FFFF00" transform="translate(0,0)"/>
<path d="" fill="#FFFF00" transform="translate(0,0)"/>
<path d="" fill="#FFFF00" transform="translate(0,0)"/>
<path d="" fill="#FFFF00" transform="translate(0,0)"/>
<path d="" fill="#FFFF00" transform="translate(0,0)"/>
<path d="" fill="#FFFF00" transform="translate(0,0)"/>
<path d="" fill="#FFFF00" transform="translate(0,0)"/>
<path d="" fill="#FFFF00" transform="translate(0,0)"/>
<path d="" fill="#FFFF00" transform="translate(0,0)"/>
<path d="" fill="#FFFF00" transform="translate(0,0)"/>
<path d="" fill="#FFFF00" transform="translate(0,0)"/>
<path d="" fill="#FFFF00" transform="translate(0,0)"/>
<path d="" fill="#FFFF00" transform="translate(0,0)"/>
<path d="" fill="#FFFF00" transform="translate(0,0)"/>
<path d="" fill="#FFFF00" transform="translate(0,0)"/>
<path d="" fill="#FFFF00" transform="translate(0,0)"/>
<path d="" fill="#FFFF00" transform="translate(0,0)"/>
<path d="" fill="#FFFF00" transform="translate(0,0)"/>
<path d="" fill="#FFFF00" transform="translate(0,0)"/>
<path d="" fill="#FFFF00" transform="translate(0,0)"/>
<path d="" fill="#FFFF00" transform="translate(0,0)"/>
<path d="" fill="#FFFF00" transform="translate(0,0)"/>
<path d="" fill="#FFFF00" transform="translate(0,0)"/>
<path d="" fill="#FFFF00" transform="translate(0,0)"/>
<path d="" fill="#FFFF00" transform="translate(0,0)"/>
<path d="" fill="#FFFF00" transform="translate(0,0)"/>
<path d="" fill="#FFFF00" transform="translate(0,0)"/>
<path d="" fill="#FFFF00" transform="translate(0,0)"/>
<path d="" fill="#FFFF00" transform="translate(0,0)"/>
<path d="" fill="#FFFF00" transform="translate(0,0)"/>
<path d="" fill="#FFFF00" transform="translate(0,0)"/>
<path d="" fill="#FFFF00" transform="translate(0,0)"/>
<path d="" fill="#FFFF00" transform="translate(0,0)"/>
<path d="" fill="#FFFF00" transform="translate(0,0)"/>
<path d="" fill="#FFFF00" transform="translate(0,0)"/>
<path d="" fill="#FFFF00" transform="translate(0,0)"/>
<path d="" fill="#FFFF00" transform="translate(0,0)"/>
<path d="" fill="#FFFF00" transform="translate(0,0)"/>
<path d="" fill="#FFFF00" transform="translate(0,0)"/>
<path d="" fill="#FFFF00" transform="translate(0,0)"/>
<path d="" fill="#FFFF00" transform="translate(0,0)"/>
<path d="" fill="#FFFF00" transform="translate(0,0)"/>
<path d="" fill="#FFFF00" transform="translate(0,0)"/>
<path d="" fill="#FFFF00" transform="translate(0,0)"/>
<path d="" fill="#FFFF00" transform="translate(0,0)"/>
<path d="" fill="#FFFF00" transform="translate(0,0)"/>
<path d="" fill="#FFFF00" transform="translate(0,0)"/>
<path d="" fill="#FFFF00" transform="translate(0,0)"/>
<path d="" fill="#FFFF00" transform="translate(0,0)"/>
<path d="" fill="#FFFF00" transform="translate(0,0)"/>
<path d="" fill="#FFFF00" transform="translate(0,0)"/>
<path d="" fill="#FFFF00" transform="translate(0,0)"/>
<path d="" fill="#FFFF00" transform="translate(0,0)"/>
<path d="" fill="#FFFF00" transform="translate(0,0)"/>
<path d="" fill="#FFFF00" transform="translate(0,0)"/>
<path d="" fill="#FFFF00" transform="translate(0,0)"/>
<path d="" fill="#FFFF00" transform="translate(0,0)"/>
<path d="" fill="#FFFF00" transform="translate(0,0)"/>
<path d="" fill="#FFFF00" transform="translate(0,0)"/>
<path d="" fill="#FFFF00" transform="translate(0,0)"/>
<path d="" fill="#FFFF00" transform="translate(0,0)"/>
<path d="" fill="#FFFF00" transform="translate(0,0)"/>
<path d="" fill="#FFFF00" transform="translate(0,0)"/>
<path d="" fill="#FFFF00" transform="translate(0,0)"/>
<path d="" fill="#FFFF00" transform="translate(0,0)"/>
<path d="" fill="#FFFF00" transform="translate(0,0)"/>
<path d="" fill="#FFFF00" transform="translate(0,0)"/>
<path d="" fill="#FFFF00" transform="translate(0,0)"/>
<path d="" fill="#FFFF00" transform="translate(0,0)"/>
<path d="" fill="#FFFF00" transform="translate(0,0)"/>
<path d="" fill="#FFFF00" transform="translate(0,0)"/>
<path d="" fill="#FFFF00" transform="translate(0,0)"/>
<path d="" fill="#FFFF00" transform="translate(0,0)"/>
<path d="" fill="#FFFF00" transform="translate(0,0)"/>
<path d="" fill="#FFFF00" transform="translate(0,0)"/>
<path d="" fill="#FFFF00" transform="translate(0,0)"/>
<path d="" fill="#FFFF00" transform="translate(0,0)"/>
<path d="" fill="#FFFF00" transform="translate(0,0)"/>
<path d="" fill="#FFFF00" transform="translate(0,0)"/>
<path d="" fill="#FFFF00" transform="translate(0,0)"/>
<path d="" fill="#FFFF00" transform="translate(0,0)"/>
<path d="" fill="#FFFF00" transform="translate(0,0)"/>
<path d="" fill="#FFFF00" transform="translate(0,0)"/>
<path d="" fill="#FFFF00" transform="translate(0,0)"/>
<path d="" fill="#FFFF00" transform="translate(0,0)"/>
<path d="" fill="#FFFF00" transform="translate(0,0)"/>
<path d="" fill="#FFFF00" transform="translate(0,0)"/>
<path d="" fill="#FFFF00" transform="translate(0,0)"/>
<path d="" fill="#FFFF00" transform="translate(0,0)"/>
<path d="" fill="#FFFF00" transform="translate(0,0)"/>
<path d="" fill="#FFFF00" transform="translate(0,0)"/>
<path d="" fill="#FFFF00" transform="translate(0,0)"/>
<path d="" fill="#FFFF00" transform="translate(0,0)"/>
<path d="" fill="#FFFF00" transform="translate(0,0)"/>
<path d="" fill="#FFFF00" transform="translate(0,0)"/>
<path d="" fill="#FFFF00" transform="translate(0,0)"/>
<path d="" fill="#FFFF00" transform="translate(0,0)"/>
</svg>
